<?xml version="1.0" encoding="utf-8"?>
<!-- Generator: Adobe Illustrator 25.4.1, SVG Export Plug-In . SVG Version: 6.00 Build 0)  -->
<svg version="1.1" id="Calque_1" xmlns="http://www.w3.org/2000/svg" xmlns:xlink="http://www.w3.org/1999/xlink" x="0px" y="0px"
	 width="948px" height="613px" viewBox="0 0 948 613" style="enable-background:new 0 0 948 613;" xml:space="preserve">
<style type="text/css">
	.st0{fill:none;stroke:#58cae2;stroke-miterlimit:10;stroke-opacity:0.3;}
</style>
<path class="st0" d="M616.2,92.7L616.2,92.7c-2.5-5-2.8-8.9-1.8-12.1c1-3.2,3.3-5.7,6.1-7.8c2.9-2.1,6.3-3.7,9.4-5.1
	c0.5-0.2,1.1-0.5,1.6-0.7c2.5-1.1,4.8-2.1,6.3-3.2l0,0l0,0c5.3-3.7,11.4-4.5,17.5-5.3c0.2,0,0.4,0,0.5-0.1
	c6.2-0.8,12.5-1.7,17.7-6.1v0l0,0c4.3-3.8,10.5-4.6,16.6-2.6c1.3,0.6,2.8,1.4,4,2.7c1.7,1.9,2.3,4.6,2.2,7.1c-0.1,2.5-0.9,4.9-2,6.3
	c-1.2,1.3-2.7,2.1-4.3,2.9c-0.2,0.1-0.4,0.2-0.6,0.3c-1.4,0.7-2.9,1.4-4.2,2.5l0,0c-2.2,1.8-3.9,4.5-5.2,7.6c-1.1,2.4-2,5-2.9,7.6
	c-0.2,0.7-0.5,1.4-0.7,2.1c-1.2,3.3-2.4,6.4-3.9,8.8c-1.5,2.4-3.4,4.1-5.8,4.7l0,0l0,0c-3.2,0.8-6.8-0.5-10.6-2.2
	c-0.5-0.2-1.1-0.5-1.6-0.7c-1.4-0.6-2.7-1.3-4.1-1.8c-1.9-0.8-3.8-1.3-5.6-1.5l0,0c-2.7-0.2-5.1,0.6-7.5,1.5
	c-0.6,0.2-1.2,0.5-1.8,0.7c-1.7,0.7-3.4,1.4-5.2,1.9l0,0l0,0C625.8,101.4,619.5,99.5,616.2,92.7z"/>
<path class="st0" d="M690.9,91.1L690.9,91.1c-0.5,1.8-1,3.6-1.4,5.6c-0.8,3.3-1.7,6.9-2.8,10.3c-1.8,5.3-4,10.1-7.4,13
	c-3.2,2.6-6.8,3.1-10.9,2.7c-3.4-0.4-6.8-1.8-10.5-3.5c-1.7-0.8-3.3-1.7-5.1-2.5c-0.2-0.1-0.3-0.2-0.5-0.3c-1.9-1-3.8-2-5.8-2.9
	c-3.5-1.7-6.9-3-10.3-3.2c-3.8-0.5-7.4,0.3-10.9,1.4c-1.6,0.5-3.2,1.1-4.8,1.7c-0.2,0.1-0.3,0.1-0.5,0.2c-1.8,0.7-3.6,1.3-5.5,1.9
	l0,0c-10.7,3.4-21.8-2.9-27.5-15.1c-1.9-4.1-3.3-8.1-4.1-12c-1.1-5.8-1.5-12.4-0.7-18.3c0.9-5.9,3.1-11,7.3-14.1
	c0.9-0.7,2.1-1,3.5-1.2c1.4-0.2,3-0.1,4.6,0c0.3,0,0.6,0,0.8,0c1.3,0.1,2.7,0.1,3.9,0.1c1.5,0,3-0.2,4.2-0.8l0,0l0,0
	c2.7-1.3,5.2-2.6,7.6-3.8c4.5-2.3,8.7-4.5,12.9-6.1v0l0,0c5.5-2.2,10.5-5.3,15.3-8.3c0.6-0.3,1.1-0.7,1.7-1
	c5.4-3.4,10.8-6.5,16.8-8.3c2.8-0.8,6-0.4,9.4,0.1c0.2,0,0.3,0.1,0.5,0.1c3.2,0.5,6.4,1,9.4,0.4c1.1-0.1,1.9-0.4,2.8-1l0,0l0,0
	c7.3-5.1,16.4-5.1,25.1-1.3l0,0l0,0c2.4,1,4.7,2.5,6.9,5.1l0.1,0.1l0.1,0c0.1,0,0.1,0.1,0.1,0.1c0,0,0,0,0,0l0,0.1l0,0.1
	c2.9,3.9,4.2,9.1,4.3,14c0.1,4.9-1,9.4-2.9,12l0,0l0,0c-1.6,2.3-3.8,3.8-6.1,5.1c-0.6,0.3-1.2,0.6-1.8,0.9c-1.7,0.9-3.5,1.9-5.1,3.1
	c-1.3,1-2.3,1.9-3.3,3c-2.5,2.9-4.3,6.6-5.8,10.5c-1.1,3.1-2.1,6.3-3,9.5C691.4,89.4,691.2,90.2,690.9,91.1z"/>
<path class="st0" d="M686.7,140.9L686.7,140.9c-5.2,3.6-11,3.3-16.8,1.8c-4.6-1.2-9.2-3.4-13.9-6c-1.7-0.9-3.4-1.9-5.1-2.9
	c-3.1-1.8-6.2-3.6-9.4-5.2c-4.6-2.5-9.1-3.9-13.4-4.6l0,0l0,0c-5.1-0.7-9.9,0.2-14.6,1.7c-2.4,0.7-4.8,1.6-7.2,2.5l-0.1,0.1
	c-2.4,0.9-4.8,1.8-7.3,2.6c-17.4,5.4-32.9-5.2-41-22.7c-2.7-6.3-5.1-12.5-6.2-18.8l0,0l0,0c-1.6-8.5-2.9-18.9-2.3-28.3
	c0.6-9.5,3.2-17.9,9.5-22.6c1.2-0.9,3.1-1.2,5.3-1.1c2.2,0.1,4.8,0.6,7.4,1.1c0.3,0.1,0.6,0.1,0.8,0.2c2.3,0.5,4.7,0.9,6.8,1.1
	c2.4,0.2,4.6,0.2,6.3-0.6h0l0,0c3.6-1.8,7.1-3.6,10.5-5.4c1.8-1,3.6-1.9,5.4-2.8c5.1-2.6,10.1-5,15.3-6.7
	c8.5-2.6,15.5-8.5,22.4-14.3c0.3-0.2,0.5-0.5,0.8-0.7c6.6-5.7,13.1-11.2,20.8-14.1l0,0c1.6-0.6,3.5-0.6,5.6-0.1
	c2.1,0.4,4.4,1.3,6.7,2.2c0.7,0.3,1.4,0.6,2.1,0.9c1.6,0.7,3.3,1.3,4.9,1.9c2.3,0.8,4.5,1.4,6.5,1.5c1.4,0.1,2.8-0.1,4-0.8l0,0l0,0
	c10.6-7.3,23.4-6.5,35-1c3.5,1.7,6.8,3.9,10.1,8l0.2,0.3l0.1,0c0,0,0,0,0,0l0,0.1l0,0.1c4.2,5.7,6.2,13.4,6.5,20.7
	c0.3,7.3-1.2,13.9-3.9,17.7v0l0,0c-2.4,3.5-5.5,5.6-8.8,7.5c-0.7,0.4-1.4,0.8-2.1,1.2c-2.7,1.5-5.4,3-7.9,5.1v0l0,0
	c-1.4,1.3-3,2.9-4.3,4.7c-6.1,8.4-8.9,20-11.4,30.5c-0.3,1.1-0.5,2.3-0.8,3.4l0,0c-0.5,2.3-1.1,4.8-1.6,7.4
	c-1.1,5.1-2.2,10.7-3.8,16C695.7,130.1,692.3,137.2,686.7,140.9z"/>
<path class="st0" d="M716.5,106.8L716.5,106.8c-0.7,2.9-1.4,6.2-2.1,9.7c-1.3,6.7-2.8,14-4.9,21c-3.2,10.6-7.8,20.1-15.4,24.8
	c-6.8,4.2-15,3.1-22.5,0.6c-5.8-2-11.5-5.1-17.2-8.5c-1.4-0.8-2.8-1.7-4.2-2.5c-4.4-2.6-8.8-5.3-13.3-7.6c-6-3.3-11.4-5.2-16.8-6h0
	c-10.9-1.7-20.7,2-31.6,6.1c-1.6,0.6-3.3,1.2-5,1.8h0c-11.8,4.3-22.7,2.5-32-3.3c-9.3-5.8-17-15.4-22.2-26.9l0,0
	c-3.9-8.2-6.8-16.7-8.3-25.2c-2-11-4.3-25.2-3.9-38.2c0.4-13.1,3.4-24.8,11.8-31l0,0c1.6-1.2,4.1-1.5,7.2-1.2
	c3.1,0.3,6.6,1.2,10.2,2.2c0.4,0.1,0.7,0.2,1.1,0.3c3.2,0.9,6.4,1.7,9.4,2.2c3.2,0.5,6.2,0.6,8.3-0.4l0,0c5.1-2.5,9.9-5.1,14.5-7.6
	c2.3-1.2,4.5-2.5,6.7-3.7c6.8-3.6,13.6-6.9,20.9-9c10.9-3.1,19.6-11.2,27.9-19.5c0.6-0.6,1.2-1.2,1.8-1.8
	c7.8-7.8,15.5-15.5,24.8-19.4c1.9-0.8,4.2-0.6,6.8,0.2c2.6,0.8,5.5,2.2,8.5,3.8c1.1,0.6,2.1,1.2,3.2,1.8c1.9,1.1,3.8,2.1,5.7,3
	c2.9,1.5,5.7,2.6,8.3,3.1l0,0l0,0l0,0c0.9,0.1,1.9,0.1,2.8,0.1c0.9-0.1,1.8-0.3,2.6-0.8c13.6-9.3,29.8-7.9,44.7-0.5
	c4.4,2.2,9.1,5.2,13.1,10.9c0,0.1,0.1,0.2,0.2,0.2c0.1,0.1,0.1,0.1,0.2,0.2c0.1,0.1,0.1,0.1,0.1,0.1c0,0,0,0,0,0l0,0.1l0,0.1
	c5.3,7.8,7.9,18,8.4,27.6c0.5,9.6-1.2,18.4-4.6,23.5l0,0c-3.2,4.9-7.3,7.6-11.7,10.1c-0.8,0.5-1.7,1-2.6,1.4c-3.6,2-7.2,4-10.4,6.9
	l0,0l0,0l0,0c-2,2-4,4-5.6,6.5c-4.5,6.2-7.4,13.8-9.6,21.6c-1.5,5.3-2.7,10.8-3.9,16C717.5,102,717,104.5,716.5,106.8z"/>
<path class="st0" d="M701.6,183.4L701.6,183.4c-8.9,5.1-19.2,3.2-28.4-0.3c-7-2.8-13.8-6.8-20.7-11.1c-1.2-0.8-2.5-1.5-3.7-2.3
	c-5.7-3.6-11.4-7.2-17.4-10.3c-7.2-3.9-13.7-6.3-20.2-7.3h0c-13.7-2.1-26.2,2.7-40.5,8.1c-1.1,0.4-2.2,0.8-3.3,1.2l0,0
	c-14.9,5.6-28.6,3.3-40.1-4c-11.6-7.3-21.1-19.6-27.5-33.8c-4.6-10.4-8.5-20.9-10.3-31.7l0,0l0,0c-2.4-13.7-5.6-31.7-5.5-48.3
	c0.1-16.6,3.4-31.7,13.9-39.4c2.1-1.5,5.3-1.7,9.2-1.1c3.9,0.6,8.4,1.9,13,3.3c0.4,0.1,0.8,0.3,1.3,0.4c4.2,1.3,8.3,2.5,12,3.3
	c4.1,0.8,7.8,1,10.4-0.2c6.5-3,12.5-6.4,18.5-9.8c2.6-1.5,5.2-2.9,7.8-4.3c8.5-4.6,17.1-8.7,26.7-11.2c13.4-3.4,23.6-13.8,33.4-24.6
	c0.8-0.9,1.7-1.9,2.5-2.8c9-10,17.9-19.8,29-24.8l0,0c2.2-1,4.9-0.7,8.1,0.5c3.2,1.2,6.7,3.2,10.3,5.5c1.4,0.9,2.8,1.8,4.1,2.6
	c2.3,1.5,4.6,2.9,6.8,4.2c3.6,2.1,7,3.9,10,4.6l0,0l0,0c2.5,0.5,4.6,0.6,6.6-0.6v0l0,0c16.8-11.5,36.7-9.4,54.7-0.2l0,0
	c5.4,2.6,11.1,6.4,16.2,13.6c0.1,0.3,0.3,0.5,0.4,0.6c0.1,0.1,0.1,0.1,0.1,0.2c0,0,0,0,0,0l0,0.1l0,0.1c6.7,9.8,10,22.6,10.7,34.5
	c0.7,11.9-1.4,22.9-5.5,29.1l0,0c-3.9,6.1-9.1,9.5-14.5,12.5c-0.9,0.5-1.8,1-2.6,1.5c-4.6,2.5-9.3,5.1-13.3,9.1
	c-2.6,2.5-4.9,5.2-6.8,8.3c-5.2,7.8-8.7,17.3-11.3,27c-1.9,6.9-3.3,14-4.7,20.8c-0.6,2.7-1.1,5.4-1.7,8c-0.8,3.5-1.5,7.5-2.3,11.7
	c-1.6,8.3-3.3,17.6-5.9,26.5C717,165.9,711.3,177.9,701.6,183.4z"/>
<path class="st0" d="M741.7,122.4L741.7,122.4c-0.8,4-1.6,8.4-2.5,13.2c-1.8,10.1-3.8,21.6-6.9,32.4c-4.6,15.9-11.5,30.3-23.4,36.9
	c-10.6,5.7-23,3.2-34.1-1.5c-8.2-3.5-16.1-8.4-24-13.5c-1.5-1-3-1.9-4.5-2.9c-6.5-4.2-13-8.5-19.8-12.2c-8.3-4.7-15.9-7.4-23.3-8.6
	h0c-17-2.6-32.4,3.3-50.5,10.3l-0.8,0.3h0c-18,7-34.4,4.1-48.2-4.7c-13.8-8.8-25-23.6-32.6-40.5c-5.6-12.4-10.2-25.1-12.5-38.1l0,0
	c-0.1-0.4-0.2-0.8-0.2-1.3c-3-16-6.9-37.2-7.1-56.8c-0.2-20.2,3.6-38.5,16.2-47.9c2.5-1.8,6.4-1.9,11.2-1.1
	c4.8,0.8,10.3,2.6,15.8,4.4c0.5,0.2,0.9,0.3,1.4,0.5c5.1,1.7,10.2,3.4,14.7,4.4c4.9,1.1,9.3,1.4,12.4-0.1l0,0
	c7.4-3.6,14.4-7.6,21.2-11.5c3.5-2,6.9-3.9,10.3-5.8c10.2-5.6,20.6-10.5,32.3-13.3l0,0c15.6-3.9,27.3-16.5,38.6-29.8
	c1-1.2,2.1-2.4,3.1-3.6c10.3-12.2,20.5-24.3,33.3-30.4l0,0c2.5-1.2,5.7-0.8,9.4,0.8c3.7,1.6,7.9,4.2,12.2,7.1
	c1.8,1.2,3.6,2.6,5.5,3.9c2.5,1.8,5,3.5,7.4,5.1c4.2,2.8,8.2,5.1,11.7,6.3c3.1,1.1,5.7,1.1,7.8-0.2l0,0l0,0
	c19.8-13.6,43.7-10.8,64.6,0.1c6.4,3.3,13.2,7.8,19.3,16.5c0,0.1,0.1,0.2,0.1,0.2c0.1,0.1,0.1,0.2,0.2,0.3l0,0
	c0.1,0.1,0.1,0.1,0.2,0.2c0,0.1,0,0.1,0.1,0.1c0,0,0,0,0,0l0,0.1l0,0.1c8,11.8,12,27.1,12.9,41.4c0.8,14.3-1.5,27.4-6.3,34.8
	c-4.8,7.4-11.1,11.5-17.6,15.2c-1,0.6-2.1,1.2-3.1,1.7c-5.5,3-11.1,6.1-15.9,10.9c-3,2.9-5.6,6.2-7.9,9.7l0,0
	c-6.3,9.5-10.2,20.9-13.2,32.7c-1.9,7.6-3.5,15.4-4.9,22.9C743.3,114.7,742.5,118.6,741.7,122.4z"/>
<path class="st0" d="M829.6,8.2L829.6,8.2c5.6-8.6,8.3-23.9,7.3-40.5c-1-16.6-5.8-34.5-14.9-48.3l0-0.1l0-0.1
	c-0.1-0.2-0.1-0.3-0.2-0.4l0,0c-0.1-0.1-0.3-0.3-0.4-0.6c-7.2-10.2-15-15.4-22.4-19.4c-24.2-12.6-51.5-16.2-74.3-0.5
	c-2.4,1.7-5.6,1.3-9,0c-4-1.5-8.6-4.4-13.4-7.8c-2.8-2-5.6-4.2-8.5-6.3c-2.1-1.6-4.2-3.2-6.3-4.7c-4.9-3.6-9.7-6.9-14-8.9
	c-4.3-2-7.9-2.7-10.7-1.4c-8,4-15.2,10.2-21.9,17.3c-5.4,5.7-10.5,12.1-15.6,18.5c-1.3,1.6-2.5,3.2-3.8,4.8
	c-12.8,15.8-26.1,30.7-44.1,34.9l0,0c-13.9,3.2-26,9-38,15.5c-3.8,2.1-7.7,4.3-11.5,6.5c-8.1,4.7-16.3,9.4-25.1,13.6 M442.5,139
	C442.5,139,442.5,139,442.5,139 M829.6,8.2 M829.6,8.2c-5.5,8.6-12.7,13.3-20.3,17.7c-1.2,0.7-2.4,1.3-3.6,2
	c-6.4,3.6-13,7.2-18.6,12.9 M829.6,8.2 M502.6-19.6c-1.8,0.9-4,1.2-6.4,1.1c-2.4-0.1-5.2-0.5-8.1-1.2c-5.3-1.3-11.2-3.3-17.1-5.4
	c-0.6-0.2-1.2-0.4-1.9-0.7c-6.5-2.3-13-4.5-18.6-5.5c-5.6-1-10.2-0.9-13.1,1.3l0,0c-7.4,5.5-12.1,13.6-14.9,23.4
	c-2.8,9.8-3.7,21.2-3.5,33c0.4,22.2,4.9,46,8.3,64.2c0.2,1.3,0.5,2.6,0.7,3.9c2.8,15.2,8.2,30.3,14.5,44.6 M442.5,139.1
	c8.8,19.5,21.7,36.8,37.8,47.2c16,10.4,35.1,13.9,56.3,5.7 M536.6,192 M536.6,192c21.3-8.3,39-15.2,58.6-12
	c8.5,1.4,17.3,4.5,26.6,9.9c7.8,4.4,15.3,9.5,22.7,14.6c1.5,1,3.1,2.1,4.6,3.1c8.9,6,17.9,11.8,27.2,16c12.8,5.7,27.4,9.3,40.1,2.6
	c14-7.4,22.1-24.2,27.4-42.7c3.7-12.8,6-26.3,8-38.1c0.9-5.4,1.8-10.4,2.7-14.9c0.7-3.6,1.4-7.4,2.1-11.2c1.8-9.4,3.6-19.3,6-29
	c3.4-13.6,8-27,15.2-38.1 M777.9,52.2c2.6-4.1,5.8-8.1,9.2-11.4"/>
<path class="st0" d="M723.7,247.3L723.7,247.3c16.2-8.3,25.4-27.4,31.4-48.6c4-14.3,6.6-29.5,8.8-42.9c1.1-6.4,2.1-12.4,3.1-17.7
	c0.9-4.5,1.7-9.1,2.6-13.8c1.9-10.4,3.9-21.3,6.6-32c3.8-15.6,8.9-30.8,17-43.6c2.9-4.7,6.5-9.2,10.5-13.2
	c6.4-6.5,13.8-10.6,21.1-14.7c1.4-0.8,2.7-1.5,4.1-2.3c8.6-4.9,16.9-10.4,23.1-20.2l0,0c6.4-9.8,9.4-27.2,8.2-46.2
	c-1.2-19-6.7-39.4-17.2-55.1c-0.2-0.2-0.4-0.5-0.5-0.7l0,0c-0.1-0.2-0.3-0.4-0.4-0.5l0,0l0,0c-7.9-11.5-17.1-17.6-25.5-22.1
	c-27.1-14.3-58.2-18.7-84.2-0.8l0,0c-2.8,1.8-6.3,1.5-10.1-0.1c-4.6-1.7-9.8-5.2-15.2-9.3c-3.2-2.4-6.5-5.1-9.8-7.7
	c-2.3-1.8-4.6-3.7-6.9-5.5c-5.6-4.3-10.9-8.2-15.8-10.6c-4.8-2.4-9-3.2-12.1-1.6c-9.1,4.6-17.1,11.8-24.6,20.1
	c-6,6.6-11.6,13.9-17.3,21.2c-1.5,1.9-2.9,3.8-4.4,5.6c-14.3,18.2-29.1,35.5-49.6,40l0,0c-16,3.5-29.9,10.2-43.6,17.8
	c-4.3,2.4-8.7,4.9-13,7.5c-9.3,5.4-18.8,10.9-28.9,15.7 M723.7,247.3 M723.7,247.3c-14.2,7.5-31.2,3.1-45.7-3.6
	c-10.6-5-20.6-11.6-30.7-18.5c-1.2-0.8-2.4-1.7-3.7-2.5c-8.9-6.1-17.8-12.2-27.2-17.4 M481-34c-2,1-4.5,1.3-7.3,1.2
	c-2.8-0.1-5.9-0.7-9.3-1.5c-6.2-1.5-13.1-4.1-20-6.6c-0.6-0.2-1.2-0.4-1.8-0.6c-7.5-2.7-15-5.3-21.4-6.7c-3.2-0.7-6.1-1-8.6-0.8
	c-2.5,0.2-4.6,0.8-6.2,2l0,0c-8.4,6.3-13.7,15.7-16.9,26.9c-3.1,11.3-4.1,24.3-3.7,38c0.7,24,5.3,49.7,9,69.9c0.5,2.8,1,5.4,1.4,8
	l0,0c3.1,17.5,9.2,34.7,16.7,51.3l0,0c10,22.2,24.7,42.1,43,54c18.3,11.9,40.2,15.9,64.5,6.3l0,0c24.2-9.3,44-16.9,65.9-13.2
	 M586.5,194.1C586.5,194.1,586.5,194.1,586.5,194.1 M586.5,194.1C586.5,194.1,586.5,194.1,586.5,194.1 M586.5,194.1
	c9.6,1.5,19.4,5.1,30,11.1 M616.5,205.2C616.5,205.2,616.5,205.2,616.5,205.2"/>
<path class="st0" d="M819.9,30.3L819.9,30.3C819.9,30.3,819.9,30.3,819.9,30.3z M874.2-11.3C874.2-11.3,874.2-11.3,874.2-11.3
	l0.4,0.3L874.2-11.3z M864-125.2C864-125.2,864-125.2,864-125.2l0.4-0.3L864-125.2C864-125.2,864-125.2,864-125.2z M834.4-151.6
	l0.2-0.4L834.4-151.6C834.4-151.6,834.4-151.6,834.4-151.6L834.4-151.6z"/>
<path class="st0" d="M439.3-63.3c-2.5,1.2-5.5,1.6-9,1.4c-3.5-0.2-7.4-1-11.6-2.1c-7.7-2.1-16.5-5.4-25.2-8.7
	c-0.8-0.3-1.5-0.6-2.3-0.9c-9.5-3.6-18.9-7.1-26.9-8.9c-4-0.9-7.7-1.4-10.9-1.2c-3.2,0.1-5.8,0.9-7.8,2.4l0,0
	c-10.5,7.8-17.1,19.6-20.9,33.8c-3.8,14.2-4.7,30.7-4.1,47.9c1.1,29.2,6.9,60.2,11.5,85c0.8,4.5,1.6,8.7,2.4,12.8 M334.5,98.3
	C334.5,98.3,334.5,98.3,334.5,98.3 M334.5,98.3C334.5,98.3,334.5,98.3,334.5,98.3 M334.5,98.3c4.1,21.9,11.7,43.5,20.9,64.2
	 M355.4,162.5C355.4,162.5,355.4,162.5,355.4,162.5 M355.4,162.5C355.4,162.5,355.4,162.5,355.4,162.5 M355.4,162.5
	c12.4,27.6,30.6,52.6,53.4,67.6c22.8,15,50.1,20.1,80.9,8 M489.7,238C489.7,238,489.7,238,489.7,238 M489.7,238 M489.7,238
	c29.5-11.7,54-20.3,80.7-15.8 M570.3,222.2C570.3,222.2,570.3,222.2,570.3,222.2 M439.3-63.3c12.5-6,24.1-12.8,35.6-19.5
	c5.6-3.3,11.1-6.5,16.6-9.6c17.1-9.6,34.6-17.9,55-22.1h0c25.1-5.2,43.1-26.9,60.4-50.1c1.9-2.5,3.8-5.1,5.6-7.6
	c6.7-9.1,13.4-18.3,20.5-26.6c9.1-10.6,18.8-19.7,29.9-25.6c3.7-1.9,8.7-0.8,14.6,2.3c5.9,3.1,12.5,8.2,19.3,13.9
	c2.9,2.4,5.8,4.9,8.7,7.4c4,3.4,8,6.8,11.9,10c6.7,5.4,13.2,10.1,18.8,12.5c4.7,2.1,9.1,2.7,12.3,0.4c32.1-22,70.4-16.5,103.9,1.5
	c10.4,5.7,21.8,13.4,31.8,28l0,0l0,0c0.1,0.1,0.3,0.4,0.4,0.6l0,0c0.1,0.2,0.3,0.5,0.5,0.8c13,19.6,19.8,45,21.4,68.6
	c1.6,23.6-2.1,45.4-9.9,57.6c-7.8,12.3-18.1,19-28.9,25.1c-1.6,0.9-3.2,1.8-4.8,2.7c-9.2,5.1-18.5,10.3-26.4,18.4l0,0
	c-4.7,5.1-8.9,10.5-12.7,16.6l0,0c-9.9,16-16,35.2-20.6,54.6c-3.1,13-5.4,26.2-7.6,38.8c-1.1,6.2-2.2,12.3-3.3,18.2v0
	c-1.2,6.2-2.3,13.3-3.5,20.8c-2.7,16.8-5.8,36.2-10.9,54.5c-7.4,26.5-19,50.4-39.4,60.6l0,0c-17.9,9-39.4,3.2-57.3-5.8l0,0
	l-74.2-47.7c0,0,0,0,0,0c-13-7.6-24.9-12-36.5-13.9 M570.4,222.2"/>
<path class="st0" d="M682.7,304L682.7,304c19.7,10.2,43.2,16.6,63.3,6.9c22.6-11,35.3-37.4,43.4-66.6c5.5-19.9,8.9-41,11.9-59.4
	c1.4-8.6,2.7-16.5,4-23.5c1.2-6.3,2.3-12.9,3.5-19.6c2.4-13.9,4.9-28.6,8.3-43c5-21.4,11.8-42.5,22.7-60.1
	c4.1-6.7,8.7-12.8,14.1-18.2c8.7-9,18.9-14.7,29-20.4c1.7-1,3.5-1.9,5.2-2.9c11.8-6.7,23.2-14.2,31.7-27.7
	c8.6-13.5,12.6-37.3,10.8-63.4c-1.7-26-9.2-54-23.4-75.5c-0.3-0.3-0.4-0.6-0.6-0.9l0,0c-0.2-0.3-0.3-0.5-0.5-0.8l0,0l0,0
	c-11-16-23.4-24.5-34.8-30.7c-36.4-19.6-78.5-26.1-113.8-1.8l0,0c-3.7,2.4-8.4,1.7-13.8-0.7c-6.1-2.7-13.2-7.9-20.5-14
	c-4.2-3.5-8.6-7.3-13-11.1c-3.2-2.8-6.4-5.6-9.6-8.3c-7.5-6.4-14.7-12-21.2-15.6c-6.5-3.5-11.9-4.8-15.9-2.6l0,0
	c-12.2,6.5-22.7,16.7-32.6,28.4c-7.7,9.1-15,19.2-22.2,29.3c-2.1,2.9-4.1,5.7-6.2,8.6c-18.7,25.7-38.2,49.6-65.8,55.2
	c-22.5,4.5-41.9,13.8-60.7,24.3c-6,3.3-11.9,6.8-17.8,10.3c-12.8,7.5-25.8,15.1-39.7,21.7 M682.7,304 M682.7,304
	c-14.1-7.2-27.4-16.4-40.6-25.8c-1.1-0.8-2.3-1.6-3.4-2.4c-12.1-8.6-24.2-17.3-37.1-24.6 M418.4-78c-2.7,1.3-6.1,1.7-9.9,1.5
	c-3.8-0.2-8.1-1.1-12.8-2.4c-8.5-2.3-18.2-6.1-27.9-9.8c-0.8-0.3-1.6-0.6-2.4-0.9c-10.5-4-20.8-8-29.8-10c-4.5-1-8.5-1.6-12-1.4
	c-3.5,0.1-6.4,0.9-8.7,2.6 M315-98.5c-11.6,8.6-18.8,21.7-22.9,37.3c-4.1,15.7-5.1,33.9-4.3,52.9c1.3,31.9,7.7,65.7,12.7,92.8
	c1,5.2,1.9,10.1,2.7,14.8v0c4.4,24.5,13,48.1,23.1,70.6h0c13.5,30.3,33.5,57.8,58.6,74.4c25,16.6,55.1,22.2,88.8,8.7h0
	c32.2-12.9,58.9-22.3,88-17 M561.8,236 M561.8,236C561.8,236,561.8,236,561.8,236 M561.8,236c12.5,2.1,25.6,7,39.9,15.2 M561.8,236
	C561.8,236,561.8,236,561.8,236 M561.8,236 M601.7,251.2C601.7,251.2,601.7,251.2,601.7,251.2"/>
<path class="st0" d="M684.3,324.2L684.3,324.2c-15.3-8-29.7-18.1-44-28.4c-1.5-1.1-2.9-2.1-4.4-3.2c-12.8-9.3-25.7-18.6-39.3-26.6
	l0,0c-15.3-8.9-29.4-14.2-43-16.5c-31.8-5.4-60.4,4.6-95.5,18.5l0,0c-37,14.8-69.9,8.6-97.2-9.6c-27.3-18.1-49.1-48.2-63.8-81.1v0
	c-11.1-24.6-20.2-50.4-25.1-77.1c-0.9-5.2-2-10.8-3.1-16.7c-5.6-29.5-12.5-66.3-14.1-100.9c-0.9-20.8,0.1-40.8,4.5-57.9
	c4.4-17.1,12.3-31.4,24.9-40.8c2.4-1.8,5.7-2.6,9.5-2.8c3.9-0.1,8.3,0.5,13.2,1.6c9.7,2.3,21.1,6.6,32.5,11.1
	c0.9,0.4,1.8,0.7,2.8,1.1c10.5,4.1,21,8.2,30.3,10.8c5.1,1.4,9.8,2.4,13.9,2.7c4.2,0.3,7.8-0.1,10.8-1.5l0,0
	c14.8-7.1,28.7-15.3,42.3-23.4c6.8-4,13.5-8,20.2-11.8c20.5-11.5,41.7-21.6,66.3-26.5l0,0c29.8-5.9,50.9-32.1,71.1-60.2
	c2.3-3.2,4.6-6.4,6.9-9.6c7.8-11,15.6-22,23.8-31.9c10.7-12.9,22.1-24,35.2-31.2c4.3-2.4,10.2-0.9,17.2,3c7,3.9,14.8,10.3,23,17.3
	c3.5,3,7,6.1,10.5,9.2c4.7,4.2,9.5,8.4,14.1,12.3c8,6.8,15.6,12.5,22.3,15.6c5.8,2.8,11,3.6,14.9,0.9c38.5-26.4,84.3-19.3,123.8,2.2
	c12.4,6.9,25.8,16,37.9,33.5c0.3,0.8,0.8,1.4,1.2,2l0,0c15.6,23.5,23.7,54.1,25.6,82.4c1.9,28.4-2.4,54.4-11.7,69v0
	c-9.3,14.8-21.6,22.9-34.5,30.2c-1.9,1.1-3.8,2.1-5.7,3.2c-11,6.1-22.1,12.3-31.6,22.2c-6,6-10.8,12.8-15.3,19.9l0,0
	c-11.8,19.4-19.1,42.4-24.5,65.8c-3.5,15.4-6.2,31.1-8.8,46c-1.3,7.7-2.6,15.1-4,22.3c-1.4,7.3-2.7,15.7-4.1,24.7
	c-3.2,20.2-6.9,43.6-13,65.6c-8.9,31.8-22.8,60.6-47.4,72.6C731.7,342.9,705.6,335.5,684.3,324.2z"/>
<path class="st0" d="M760.8,353.4L760.8,353.4c-23.7,11.5-51.9,3.3-74.9-9l-0.2,0.4l0.2-0.4c-16.5-8.8-31.9-19.7-47.3-30.8
	c-1.2-0.8-2.3-1.7-3.5-2.5c-14.2-10.3-28.5-20.6-43.7-29.4l0,0c-16.6-9.5-31.5-15.1-46.3-17.8l0,0c-34.1-6-64.9,4.6-102.8,19.7l0,0
	c-40.1,16.2-75.7,9.5-105.2-10.2c-29.5-19.7-53-52.3-68.9-87.9l0,0c-12.1-26.9-22.2-54.8-27.3-83.8l-0.5,0.1l0.5-0.1
	c-1.1-6.3-2.4-13.2-3.8-20.4c-5.9-31.5-13.2-70.4-14.9-107.1c-1.1-22.5,0-44.2,4.7-62.8c4.7-18.6,13.2-34.1,26.9-44.3
	c2.6-1.9,6.1-2.9,10.2-3s9,0.6,14.3,1.8c10.6,2.5,22.9,7.2,35.3,12.1c1,0.4,2,0.8,2.9,1.2c11.5,4.5,22.9,9,33,11.9
	c5.5,1.6,10.6,2.6,15.1,2.9c4.5,0.3,8.5-0.1,11.7-1.6l0,0c16.3-7.7,31.4-16.7,46.4-25.5c7.2-4.2,14.3-8.4,21.5-12.5
	c22.3-12.5,45.2-23.5,72.1-28.7c16.1-3.1,29.9-11.8,42.3-23.5c12.4-11.7,23.5-26.5,34.3-41.8c2.5-3.5,4.9-7,7.4-10.6
	c8.3-11.9,16.7-23.9,25.5-34.7c11.5-14,23.7-26.2,37.9-34c2.3-1.3,5-1.5,8.1-0.9c3.1,0.6,6.6,2.1,10.3,4.3c7.5,4.3,16,11.2,24.7,19
	c3.7,3.3,7.5,6.7,11.3,10.1c5.1,4.6,10.2,9.2,15.2,13.5c8.6,7.4,16.9,13.8,24,17.2l0,0c6.3,2.9,11.6,3.9,16,1l0,0
	c41.8-28.6,91.1-20.6,133.7,2.5c13.7,7.5,28.2,17.6,41.3,36.4c0.3,0.8,0.8,1.4,1.2,2l0,0c16.8,25.6,25.6,58.7,27.7,89.3
	c2.1,30.7-2.6,58.9-12.6,74.8c-10,16-23.3,24.8-37.2,32.7c-2,1.2-4.1,2.3-6.1,3.5c-11.9,6.7-24,13.4-34.2,24.1l0,0
	c-6.3,6.7-11.5,13.8-16.4,21.6v0c-12.8,20.9-20.8,45.9-26.5,71.2c-3.8,16.9-6.7,33.9-9.4,50.1c-1.4,8.2-2.7,16.1-4.1,23.7
	c-1.5,7.9-2.9,16.9-4.4,26.7c-3.4,21.8-7.3,47.2-14,71C802.7,309.4,787.6,340.5,760.8,353.4z"/>
<path class="st0" d="M687.5,364.6L687.5,364.6c-17.7-9.6-34.2-21.4-50.8-33.3c-0.7-0.5-1.3-1-2-1.5c-15.9-11.5-31.8-23-48.9-32.7
	c-17.7-10.5-34.1-16.3-49.8-19.2l0,0c-36.4-6.5-69.3,4.8-110,21.1h0c-43.2,17.4-81.4,10.1-113.2-11.2
	c-31.8-21.2-57.1-56.4-74.1-94.6C225.8,164,215,134,209.3,102.8v0c-1.2-6.6-2.6-13.7-4-21.2c-6.5-34.1-14.6-76.4-16.6-116.3
	c-1.2-24.3-0.1-47.8,4.9-67.8c5.1-20.1,14.1-36.8,28.9-47.7c2.8-2.1,6.6-3.1,11.1-3.2c4.5-0.1,9.7,0.7,15.4,2
	c11.4,2.8,24.7,7.9,38.1,13.3c1,0.4,2.1,0.8,3.1,1.2c12.4,4.9,24.8,9.9,35.7,13c5.9,1.7,11.4,2.9,16.3,3.2c4.9,0.4,9.1-0.1,12.5-1.7
	h0c17.5-8.3,33.8-18,49.8-27.6c7.7-4.6,15.3-9.1,23.1-13.5c23.9-13.5,48.6-25.4,77.7-30.9c17.3-3.3,32.1-12.6,45.4-25.3
	c13.3-12.6,25.2-28.5,36.8-45.1c2.7-3.9,5.4-7.8,8.1-11.7c8.8-12.8,17.7-25.6,27.1-37.2c12.2-15.2,25.4-28.3,40.5-36.8
	c2.5-1.4,5.4-1.6,8.8-1c3.4,0.7,7.1,2.3,11.1,4.7c8,4.7,17.2,12.3,26.6,20.7c4,3.6,8.1,7.4,12.2,11.1c5.5,5,10.9,10,16.2,14.6
	c9.3,8.1,18.1,15,25.8,18.7c6.7,3.3,12.5,4.2,17.1,1.2l0,0c44.5-30.6,97.7-22.1,143.4,2.9l0,0c15,8.1,30.6,18.9,44.4,39.3l0,0l0,0
	c0.2,0.3,0.5,0.7,0.8,1.1c0.3,0.4,0.5,0.7,0.8,1.1c18.2,27.6,27.6,63.1,29.9,96.2c2.2,33-2.8,63.4-13.4,80.5l0.4,0.3l-0.4-0.3
	c-10.7,17.3-25.1,26.8-40.1,35.3c-2.2,1.3-4.4,2.5-6.6,3.7C927.3-13.2,914.4-6,903.4,5.5l0,0c-6.7,7.1-12.5,14.9-17.6,23.4l0,0
	c-13.6,22.6-22,49.5-28.1,76.9c-4,17.8-7,35.8-9.9,52.9c-1.5,9.2-3,18.1-4.6,26.6v0c-1.5,8.3-3,17.7-4.5,27.9
	c-3.6,23.7-7.9,51.3-15.1,77.2c-10.3,37.1-26.5,70.7-55.4,84.5C742.7,386.9,712.3,378.1,687.5,364.6z"/>
<path class="st0" d="M178.2,103.6c-1.3-7.2-2.8-15-4.4-23.3c-7-36.4-15.6-81.5-17.8-124.1c-1.3-26.1-0.2-51.3,5.2-72.8
	c5.4-21.5,15.1-39.5,30.9-51.2l0,0c3-2.3,7.1-3.3,11.9-3.4c4.8-0.1,10.4,0.7,16.5,2.2c12.2,3,26.5,8.6,40.9,14.4
	c1.1,0.5,2.3,0.9,3.4,1.4c13.3,5.4,26.5,10.7,38.2,14.1c6.3,1.8,12.2,3.1,17.5,3.5c5.2,0.4,9.8-0.1,13.4-1.8l0,0
	c18.6-8.9,35.9-19.2,53.1-29.4c8.3-5,16.7-9.9,25-14.6c25.7-14.5,52.2-27.1,83.5-33.1h0c18.5-3.5,34.1-13.5,48.3-27
	c14.1-13.5,26.8-30.6,39.1-48.3c2.9-4.2,5.8-8.4,8.7-12.6c9.4-13.7,18.8-27.4,28.7-39.9c13-16.3,27-30.5,43.2-39.6
	c2.6-1.5,5.7-1.7,9.3-1c3.6,0.8,7.5,2.5,11.8,5.1c8.6,5.1,18.3,13.2,28.4,22.3c4.3,3.9,8.7,7.9,13.1,12c5.8,5.4,11.6,10.8,17.3,15.7
	c9.9,8.7,19.4,16.2,27.5,20.3l0,0c7,3.5,13.5,4.6,18.2,1.3c47.8-32.7,104.7-23.6,153.4,3.2l0,0c15.9,8.6,32.6,20.1,47.5,42
	c0.3,0.4,0.5,0.8,0.8,1.2c0.3,0.4,0.5,0.7,0.8,1.2l0,0c19.4,29.5,29.6,67.7,32,103c2.5,35.4-2.8,67.9-14.2,86.2v0
	c-11.5,18.5-27,28.6-43,37.7c-2.2,1.3-4.5,2.5-6.8,3.8c-13.9,7.7-27.8,15.5-39.6,28l0,0c-7.2,7.8-13.4,16.1-18.9,25.1
	c-14.6,24.3-23.6,53.1-30.1,82.4c-4.3,19.3-7.5,38.8-10.6,57.3c-1.6,9.5-3.1,18.8-4.7,27.7l0,0c-1.6,8.8-3.1,18.8-4.7,29.5
	c-3.8,25.4-8.3,55.2-16,83.1c-11,39.8-28.4,75.7-59.5,90.4l0,0c-27.4,13.1-60.1,3.4-86.5-11.2h0c-18.9-10.4-36.5-23.1-54-36
	c-1.2-0.8-2.3-1.7-3.5-2.6c-16.4-12.1-32.8-24.2-50.4-34.6l0,0c-19-11.1-36.3-17.4-53.1-20.5h0c-38.9-7-74.3,4.9-117.5,22.3
	c-46.4,18.8-87.4,11-121.4-11.7c-34-22.7-61.1-60.4-79.3-101.4C196,169.4,184.4,137,178.2,103.6z"/>
<path class="st0" d="M868.5,201L868.5,201c-1.7,9.2-3.2,19.7-5,31.1c-4.1,27.2-8.9,59-17.2,88.9c-11.7,42.4-30.3,80.7-63.5,96.4
	c-29.1,13.6-63.8,3.4-92.3-12.4c-20.1-11.2-38.8-24.8-57.4-38.4l-1.4-1c-18.1-13.3-36.3-26.6-55.8-37.7
	c-20-11.8-38.3-18.6-56.2-21.8h0c-41.2-7.3-78.8,5.1-124.8,23.7c-49.6,20-93.3,11.6-129.6-12.7c-36.3-24.3-65-64.5-84.4-108.2l0,0
	c-14.7-32.9-27.1-67.5-33.4-103.2l0,0c-1.5-8.3-3.2-17.2-5-26.7c-7.3-38.5-16.4-85.9-18.7-130.7c-1.5-27.9-0.4-54.8,5.4-77.8
	c5.7-23,16-42.2,32.9-54.7l0,0c3.2-2.4,7.5-3.5,12.6-3.7c5.1-0.1,11.1,0.8,17.6,2.4c13,3.2,28.3,9.3,43.7,15.5
	c1.2,0.5,2.4,1,3.6,1.5c14.2,5.8,28.3,11.5,40.8,15.2c6.8,2,13.1,3.4,18.6,3.8c5.5,0.4,10.4-0.1,14.3-1.9l0,0
	c19.9-9.5,38.3-20.5,56.6-31.4c8.9-5.3,17.7-10.6,26.7-15.6c27.4-15.5,55.7-29,89.1-35.3c19.7-3.7,36.4-14.3,51.4-28.7
	c15-14.4,28.4-32.7,41.5-51.7c3.1-4.5,6.2-9,9.2-13.6c9.9-14.7,19.9-29.3,30.4-42.7c13.8-17.5,28.7-32.6,45.9-42.4h0
	c2.8-1.6,6.1-1.9,9.9-1c3.8,0.8,8,2.7,12.5,5.5c9.1,5.5,19.4,14.2,30.1,24c4.5,4.1,9.1,8.4,13.7,12.7c6.3,5.9,12.5,11.7,18.6,17.2
	c10.5,9.4,20.6,17.5,29.4,21.9c7.5,4.1,14.2,5.2,19.4,1.7l0,0c51-34.9,111.4-24.9,163.3,3.5c17,9.3,34.6,21.5,50.6,44.9l0,0l0,0
	c0.5,0.6,1,1.5,1.6,2.3v0c20.6,31.5,31.4,72.2,34.1,109.9c2.7,37.7-2.9,72.4-15.1,91.9v0c-12.3,19.8-28.7,30.6-45.7,40.3
	c-2.4,1.4-4.9,2.7-7.3,4.1c-14.7,8.2-29.6,16.5-42.2,29.8c-7.7,8-14.2,16.9-20,26.6c-15.5,25.8-25.1,56.6-32,87.8
	c-4.5,20.2-7.9,40.7-11.1,60.2C872,181,870.3,191.2,868.5,201z"/>
<path class="st0" d="M881.2,208.6L881.2,208.6c-1.8,9.8-3.4,20.9-5.2,32.9c-4.3,28.8-9.4,62.7-18.2,94.5
	c-12.4,45.1-32.2,85.9-67.4,102.4c-31.1,14.6-68,3.5-98.2-13.3l-0.2,0.4l0.2-0.4c-21.3-11.8-41-26.2-60.7-40.8
	c-0.9-0.7-1.8-1.3-2.7-2c-18.8-13.9-37.6-27.8-57.8-39.6l-0.3,0.4l0.3-0.4c-35.1-20.5-65.5-27.2-95.9-25.1
	c-30.4,2-60.7,12.7-95.7,27c-52.7,21.3-99.2,12.3-137.7-13.5c-38.5-25.9-69.1-68.7-89.8-114.9c-15.7-35-28.8-71.9-35.8-110.1
	c-1.6-8.9-3.4-18.6-5.4-28.9c-7.8-40.7-17.4-90.9-19.9-138.3c-1.6-29.7-0.5-58.3,5.6-82.8c6-24.5,17-44.9,34.9-58.2l0,0
	c3.4-2.5,7.9-3.7,13.4-3.8c5.5-0.1,11.8,0.9,18.7,2.7c13.9,3.5,30.1,10,46.5,16.7c1.2,0.5,2.4,1,3.6,1.5
	c15.2,6.2,30.3,12.4,43.6,16.3c7.2,2.1,13.9,3.6,19.8,4.1c5.9,0.5,11.1-0.1,15.1-2l0,0c21-10,40.5-21.7,59.9-33.2
	c9.5-5.7,19-11.4,28.7-16.8c29.1-16.5,59.3-30.8,94.8-37.4c20.9-3.9,38.5-15.1,54.4-30.5c15.9-15.4,30.1-34.8,43.9-55
	c3.3-4.8,6.6-9.7,9.8-14.5c10.5-15.6,21-31.2,32.1-45.3c14.6-18.6,30.3-34.7,48.5-45.1l0,0c3.6-2,8-2,13.1-0.3
	c5.1,1.7,10.9,5,17.1,9.5c12.3,8.8,26.2,21.9,40,35l0.4,0.4c14,13.2,28,26.4,40.3,35.1c6.2,4.3,11.9,7.6,17.1,9.1
	c5.2,1.5,9.8,1.4,13.5-1.2l0,0c54.1-36.8,118.2-26.1,173.1,4.2l0,0c17.9,9.8,36.7,22.9,53.7,47.9v0c22.8,33.3,34.8,77,37.9,117.6
	c3.1,40.7-2.9,78.2-15.9,99.1c-13.1,21-30.5,32.4-48.6,42.8c-2.6,1.5-5.1,2.9-7.7,4.3c-15.6,8.7-31.4,17.6-44.8,31.8
	c-25.8,27.4-40.7,64.4-50.8,103.4c-7.1,27.5-11.7,55.9-16.1,82.6C884.8,187.5,883.1,198.3,881.2,208.6z"/>
<path class="st0" d="M819.9,30.3 M729-153L729-153c-5.1-2.1-10.9-6.2-17-10.9c-3.6-2.8-7.2-5.8-10.9-8.9c-2.6-2.2-5.2-4.3-7.8-6.4
	c-6.2-5-12.2-9.5-17.5-12.2c-5.4-2.8-9.9-3.7-13.3-1.9h0c-10.1,5.3-18.9,13.4-27.2,22.9c-6.5,7.4-12.6,15.6-18.8,23.8
	c-1.7,2.3-3.4,4.5-5.1,6.8c-15.7,20.7-32.2,40.1-54.9,45l0,0c-18.1,3.8-33.9,11.3-49.3,19.9c-5.1,2.8-10.1,5.7-15.1,8.7
	c-10.3,6-20.7,12.1-31.8,17.4c-2.2,1.1-5,1.4-8.1,1.3c-3.1-0.2-6.7-0.8-10.4-1.8c-7-1.8-14.8-4.8-22.7-7.7c-0.6-0.2-1.3-0.5-1.9-0.7
	c-8.5-3.2-16.9-6.2-24.2-7.8c-3.6-0.8-6.9-1.2-9.8-1c-2.9,0.1-5.2,0.8-7,2.1c-9.5,7-15.4,17.6-18.9,30.4c-3.5,12.7-4.4,27.5-3.9,43
	c0.9,26.8,6.1,55.3,10.3,77.9c0.6,3.5,1.3,6.8,1.8,10c3.6,19.7,10.5,39.1,18.9,57.7l0,0c11.1,24.8,27.6,47.2,48.2,60.7
	c20.5,13.5,45.1,18.1,72.6,7.2l0,0c26.7-10.5,49-18.6,73.4-14.7h0c10.5,1.8,21.5,5.8,33.2,12.7c10.1,5.8,19.7,12.5,29.3,19.2
	c1.6,1.1,3.1,2.2,4.7,3.3c11.1,7.7,22.2,15.1,33.9,20.8l0,0c16.2,8,35.3,13,51.7,4.8c18.2-9.3,28.7-30.8,35.4-54.6
	c4.6-16.4,7.5-33.9,9.9-49.1c1.1-6.9,2.2-13.3,3.3-18.9c1-5,1.9-10.3,2.8-15.6c2.1-11.6,4.2-23.8,7.1-35.8
	c4.2-17.6,9.8-34.8,18.8-49.2l0,0c3.5-5.4,7.1-10.4,11.5-14.9l0.1-0.1c7.1-7.2,15.4-11.7,23.6-16.3c1.5-0.8,3-1.7,4.5-2.5
	C857.9,6,867.1,0,874-11l0,0c7.1-10.8,10.5-30.2,9.1-51.3c-1.4-21-7.5-43.6-19.2-61c-0.2-0.2-0.4-0.5-0.6-0.7l0,0
	c-0.2-0.2-0.3-0.4-0.5-0.6l0,0l0,0c-8.8-12.8-19.1-19.5-28.5-24.6c-30.4-15.8-64.4-23.2-93.6-3.4l0,0
	C737.6-150.6,733.3-151.1,729-153L729-153z"/>
</svg>
