<svg width="948" height="613" viewBox="0 0 948 613" fill="none" xmlns="http://www.w3.org/2000/svg">
<path d="M616.15 92.6865L616.149 92.684C613.666 87.7162 613.359 83.7826 614.326 80.5999C615.297 77.4067 617.577 74.8826 620.44 72.7926C623.304 70.7018 626.711 69.0755 629.874 67.6618C630.407 67.4239 630.934 67.1914 631.451 66.9632C633.975 65.8501 636.263 64.8411 637.78 63.813L637.78 63.813L637.786 63.8089C643.085 60.1023 649.147 59.3178 655.254 58.5272C655.436 58.5037 655.618 58.4802 655.8 58.4566C662.05 57.6448 668.331 56.7344 673.514 52.3742L673.514 52.3743L673.521 52.3683C677.854 48.5843 684 47.7375 690.156 49.7788C691.432 50.4044 692.927 51.1485 694.127 52.4757C695.787 54.4092 696.443 57.0311 696.376 59.5581C696.309 62.0883 695.519 64.4353 694.393 65.8082C693.199 67.0926 691.71 67.9237 690.105 68.7372C689.898 68.8418 689.689 68.9463 689.479 69.0515C688.071 69.7561 686.595 70.4942 685.279 71.542L685.276 71.5444C683.05 73.3453 681.421 76.0686 680.065 79.1139C679 81.5056 678.085 84.1402 677.184 86.735C676.938 87.4446 676.692 88.1512 676.445 88.8491C675.288 92.119 674.09 95.2001 672.555 97.6141C671.024 100.023 669.193 101.709 666.789 102.283L666.789 102.283L666.777 102.286C663.562 103.135 659.975 101.784 656.172 100.044C655.641 99.8008 655.106 99.5505 654.569 99.2991C653.213 98.6643 651.843 98.0232 650.494 97.4803C648.607 96.7206 646.713 96.1314 644.867 96.0005L644.866 96.0004C642.164 95.8136 639.738 96.5829 637.412 97.5122C636.82 97.7485 636.238 97.9937 635.659 98.2373C633.934 98.9636 632.242 99.676 630.437 100.098L630.424 100.101L630.412 100.105C625.813 101.425 619.52 99.5263 616.15 92.6865Z" stroke="#377E8D" stroke-opacity="0.5" stroke-miterlimit="10"/>
<path d="M690.905 91.0705L690.903 91.0758C690.414 92.8232 689.945 94.7013 689.459 96.6433C688.623 99.9867 687.74 103.519 686.629 106.901C684.876 112.236 682.604 117.026 679.204 119.86C676.028 122.471 672.371 122.975 668.31 122.538C664.932 122.137 661.465 120.783 657.826 119.048C656.168 118.257 654.483 117.392 652.76 116.507C652.595 116.423 652.43 116.338 652.264 116.253C650.373 115.282 648.436 114.295 646.452 113.372C642.928 111.644 639.514 110.365 636.16 110.143C632.322 109.686 628.773 110.431 625.247 111.57C623.641 112.088 622.031 112.692 620.4 113.303C620.24 113.363 620.079 113.423 619.919 113.483C618.119 114.156 616.288 114.832 614.38 115.418L614.376 115.42C603.666 118.824 592.624 112.529 586.872 100.316C584.948 96.229 583.579 92.2237 582.762 88.299C581.69 82.4587 581.229 75.9038 582.106 70.027C582.985 64.1427 585.193 59.0091 589.391 55.906C590.297 55.2375 591.501 54.89 592.917 54.7366C594.332 54.5834 595.907 54.6283 597.528 54.7053C597.806 54.7185 598.086 54.7326 598.366 54.7468C599.704 54.8146 601.056 54.8831 602.315 54.8504C603.834 54.8109 605.282 54.6242 606.465 54.0754L606.465 54.0754L606.472 54.072C609.125 52.7902 611.655 51.4871 614.096 50.2307C618.626 47.8982 622.844 45.7266 626.951 44.1502L626.951 44.1503L626.96 44.1464C632.445 41.9105 637.422 38.8234 642.299 35.7978C642.856 35.4521 643.412 35.1073 643.968 34.7645C649.399 31.4125 654.771 28.2631 660.729 26.4882C663.5 25.6681 666.729 26.0941 670.114 26.6081C670.284 26.634 670.455 26.6601 670.627 26.6863C673.79 27.1698 677.066 27.6706 679.985 27.0712C681.084 26.9744 681.871 26.7029 682.802 26.1004L682.809 26.0959L682.816 26.0912C690.151 20.9884 699.261 20.9712 707.92 24.8266L707.927 24.8296L707.933 24.8324C710.336 25.8183 712.666 27.3435 714.857 29.9631L714.925 30.0445L715.02 30.0912C715.083 30.1217 715.124 30.1421 715.154 30.1578C715.158 30.1693 715.163 30.1827 715.168 30.1987L715.193 30.2716L715.239 30.3337C718.134 34.2608 719.469 39.4686 719.575 44.3756C719.682 49.296 718.553 53.8085 716.639 56.3632L716.634 56.3705L716.629 56.378C715.003 58.7221 712.868 60.165 710.575 61.4426C709.999 61.7632 709.409 62.0754 708.814 62.3901C707.067 63.3143 705.278 64.261 703.685 65.5123C702.41 66.4846 701.352 67.3911 700.375 68.5488C697.836 71.456 696.05 75.1111 694.61 79.0124C693.477 82.0803 692.549 85.3295 691.642 88.508C691.396 89.369 691.151 90.2249 690.905 91.0705Z" stroke="#377E8D" stroke-opacity="0.5" stroke-miterlimit="10"/>
<path d="M686.724 140.922L686.718 140.926C681.517 144.502 675.73 144.188 669.965 142.735C665.368 141.555 660.785 139.311 656.081 136.708C654.393 135.773 652.685 134.79 650.956 133.795C647.894 132.032 644.768 130.233 641.576 128.604C636.976 126.149 632.461 124.735 628.191 124.044L628.191 124.044L628.178 124.042C623.062 123.352 618.299 124.244 613.545 125.702C611.17 126.43 608.789 127.303 606.368 128.193L606.227 128.245C603.847 129.12 601.427 130.01 598.912 130.805C581.477 136.245 566.023 125.638 557.915 108.103C555.246 101.849 552.833 95.5543 551.762 89.3446L551.762 89.3446L551.761 89.3384C550.187 80.8564 548.823 70.4792 549.451 61.0248C550.08 51.5534 552.7 43.1355 558.962 38.4089C560.204 37.5092 562.039 37.2247 564.296 37.3248C566.542 37.4245 569.104 37.8985 571.726 38.4159C572.004 38.4707 572.283 38.526 572.562 38.5814C574.898 39.0454 577.255 39.5135 579.399 39.7307C581.785 39.9725 584.003 39.9161 585.678 39.1273L585.679 39.1273L585.684 39.1249C589.333 37.356 592.822 35.499 596.219 33.6904C598.026 32.7284 599.808 31.7801 601.574 30.8661C606.674 28.2267 611.674 25.858 616.907 24.2003C625.428 21.5556 632.435 15.7261 639.286 9.8681C639.551 9.64131 639.816 9.41449 640.081 9.18779C646.688 3.5327 653.2 -2.04024 660.918 -4.93158L660.92 -4.93256C662.497 -5.53337 664.382 -5.50136 666.492 -5.06707C668.599 -4.63339 670.877 -3.81065 673.217 -2.88574C673.921 -2.60727 674.632 -2.31901 675.345 -2.0301C676.985 -1.36578 678.632 -0.697983 680.226 -0.137658C682.512 0.666372 684.745 1.27132 686.77 1.33914C688.174 1.41036 689.552 1.23834 690.774 0.527521L690.79 0.518008L690.806 0.507293C701.369 -6.75782 714.213 -5.94867 725.84 -0.444412C729.301 1.25314 732.671 3.48965 735.905 7.60466L736.124 7.88356L736.225 7.8492C736.225 7.85006 736.225 7.85093 736.226 7.8518L736.25 7.92325L736.295 7.9843C740.48 13.7338 742.529 21.4258 742.831 28.6611C743.134 35.912 741.678 42.5904 738.979 46.3385L738.979 46.3384L738.971 46.3493C736.559 49.8914 733.455 51.9971 730.142 53.8893C729.443 54.2883 728.732 54.6789 728.017 55.0723C725.358 56.5336 722.627 58.0347 720.162 60.1533L720.162 60.1532L720.153 60.1613C718.718 61.457 717.112 63.0857 715.825 64.8844C709.726 73.272 706.93 84.8904 704.412 95.3549C704.14 96.4873 703.87 97.6062 703.601 98.706L703.6 98.7097C703.061 100.978 702.546 103.468 702.006 106.08C700.95 111.191 699.796 116.767 698.183 122.058C695.745 130.052 692.304 137.203 686.724 140.922Z" stroke="#377E8D" stroke-opacity="0.5" stroke-miterlimit="10"/>
<path d="M716.463 106.802L716.463 106.802C715.77 109.751 715.11 113.043 714.412 116.524C713.078 123.175 711.606 130.518 709.502 137.488C706.299 148.101 701.687 157.635 694.062 162.323C687.213 166.473 679.04 165.403 671.586 162.929C665.78 160.965 660.089 157.833 654.342 154.421C652.951 153.595 651.555 152.752 650.154 151.905C645.786 149.267 641.366 146.597 636.851 144.307C630.899 140.991 625.424 139.104 620.028 138.26L620.027 138.26C609.163 136.594 599.305 140.28 588.417 144.351C586.779 144.963 585.117 145.585 583.425 146.198L583.424 146.198C571.646 150.488 560.739 148.652 551.461 142.905C542.168 137.148 534.496 127.456 529.269 116.032L529.266 116.027C525.401 107.819 522.488 99.2957 520.921 90.8489C518.888 79.8549 516.621 65.6649 516.995 52.6394C517.371 39.5853 520.395 27.8668 528.777 21.6254L528.778 21.6247C530.417 20.3985 532.922 20.1293 536.018 20.4505C539.095 20.7696 542.628 21.6559 546.229 22.6035C546.603 22.702 546.978 22.8011 547.353 22.9003C550.57 23.751 553.801 24.6057 556.714 25.0773C559.946 25.6008 562.904 25.6757 565.053 24.6553L565.056 24.6538C570.127 22.2035 574.91 19.5792 579.57 17.0222C581.834 15.7794 584.07 14.5526 586.296 13.3694C593.116 9.74394 599.872 6.51068 607.2 4.40089C618.132 1.33504 626.763 -6.79965 635.125 -15.1322C635.711 -15.716 636.296 -16.3007 636.88 -16.8847C644.669 -24.6762 652.349 -32.3586 661.645 -36.2716C663.527 -37.0366 665.842 -36.8487 668.483 -36.0318C671.117 -35.2167 673.997 -33.8006 676.963 -32.2101C678.023 -31.6418 679.096 -31.0499 680.171 -30.457C682.085 -29.401 684.005 -28.3421 685.864 -27.4085C688.77 -25.9492 691.597 -24.7592 694.142 -24.3279L694.165 -24.324L694.188 -24.3223L694.21 -24.3206C695.149 -24.2496 696.135 -24.1751 697.047 -24.2443C697.965 -24.314 698.864 -24.5322 699.603 -25.0909C713.162 -34.4338 729.422 -32.9448 744.328 -25.635C748.737 -23.473 753.442 -20.3877 757.471 -14.7329C757.516 -14.6339 757.574 -14.5538 757.624 -14.4923C757.687 -14.4166 757.756 -14.3488 757.803 -14.3032C757.856 -14.2502 757.887 -14.2195 757.91 -14.1915C757.918 -14.1822 757.922 -14.1759 757.924 -14.1726L757.943 -14.1181L757.981 -14.0624C763.263 -6.28871 765.91 3.93075 766.379 13.5048C766.849 23.0945 765.129 31.9277 761.795 36.9548L761.792 36.9586C758.636 41.8119 754.508 44.599 750.137 47.0854C749.29 47.5671 748.431 48.0385 747.568 48.5123C743.998 50.4728 740.353 52.4746 737.13 55.4207L737.12 55.4296L737.111 55.439L737.094 55.4564C735.134 57.446 733.136 59.4759 731.538 61.9106C727.087 68.1337 724.186 75.6905 721.964 83.5091C720.454 88.8258 719.251 94.2944 718.092 99.5587C717.548 102.03 717.014 104.457 716.463 106.802Z" stroke="#377E8D" stroke-opacity="0.5" stroke-miterlimit="10"/>
<path d="M701.552 183.408L701.55 183.409C692.652 188.53 682.331 186.615 673.195 183.121C666.184 180.371 659.389 176.352 652.51 172.063C651.279 171.296 650.046 170.52 648.809 169.741C643.14 166.175 637.382 162.553 631.401 159.456C624.18 155.518 617.747 153.158 611.228 152.163L611.227 152.163C597.545 150.103 585.028 154.84 570.704 160.262C569.612 160.675 568.51 161.092 567.396 161.511L567.396 161.511C552.49 167.134 538.82 164.783 527.256 157.496C515.675 150.198 506.194 137.937 499.751 123.737C495.146 113.374 491.267 102.793 489.444 92.0534L489.443 92.0502L489.436 92.0064C487.024 78.3458 483.839 60.3071 483.919 43.709C483.999 27.0597 487.365 12.0553 497.869 4.29378C499.931 2.79176 503.131 2.5855 507.076 3.16219C510.997 3.7353 515.512 5.05756 520.095 6.45021C520.516 6.57822 520.938 6.70682 521.36 6.83546C525.512 8.10105 529.675 9.37006 533.401 10.1082C537.482 10.9165 541.172 11.1191 543.789 9.87114C550.243 6.83156 556.301 3.44347 562.248 0.117332C564.856 -1.34136 567.443 -2.78814 570.032 -4.18838C578.542 -8.78993 587.115 -12.9086 596.697 -15.393C610.076 -18.7577 620.267 -29.1727 630.1 -39.9988C630.944 -40.9272 631.784 -41.8585 632.624 -42.789C641.621 -52.7581 650.524 -62.6222 661.577 -67.605L661.578 -67.6057C663.751 -68.5935 666.511 -68.2703 669.712 -67.0672C672.901 -65.8688 676.424 -63.8378 680.057 -61.5616C681.426 -60.7037 682.814 -59.809 684.202 -58.9138C686.477 -57.447 688.755 -55.9785 690.958 -54.6674C694.509 -52.5543 697.941 -50.8019 700.987 -50.0705L701.001 -50.0671L701.015 -50.0646C703.561 -49.6075 705.653 -49.4189 707.573 -50.6619L707.573 -50.6618L707.584 -50.6693C724.386 -62.1902 744.31 -60.0969 762.254 -50.9035L762.262 -50.8996C767.623 -48.2702 773.367 -44.4796 778.442 -37.3259C778.551 -37.0422 778.702 -36.849 778.821 -36.71C778.895 -36.6248 778.924 -36.5953 778.96 -36.5494C778.972 -36.5335 778.979 -36.5241 778.981 -36.5199L779 -36.465L779.038 -36.4098C785.69 -26.5767 789.071 -13.8162 789.736 -1.91861C790.402 9.99583 788.34 20.937 784.221 27.161L784.219 27.1641C780.279 33.2142 775.104 36.6256 769.67 39.7086C768.796 40.2047 767.913 40.6928 767.028 41.1826C762.43 43.7257 757.751 46.3139 753.698 50.2933C751.074 52.7971 748.761 55.4677 746.85 58.5438C741.62 66.3615 738.179 75.8284 735.555 85.5777C733.689 92.5133 732.23 99.6202 730.841 106.392C730.277 109.135 729.726 111.824 729.163 114.424C728.382 117.93 727.638 121.891 726.845 126.11C725.282 134.426 723.531 143.747 720.938 152.58C717.03 165.896 711.264 177.871 701.552 183.408Z" stroke="#377E8D" stroke-opacity="0.5" stroke-miterlimit="10"/>
<path d="M741.707 122.36L741.707 122.363C740.88 126.321 740.091 130.786 739.25 135.549C737.462 145.663 735.436 157.125 732.308 167.96C727.705 183.902 720.766 198.266 708.882 204.816C698.322 210.51 685.928 207.981 674.796 203.311C666.582 199.775 658.703 194.927 650.775 189.802C649.288 188.841 647.798 187.869 646.304 186.895C639.847 182.683 633.31 178.42 626.518 174.686C618.251 170.035 610.622 167.288 603.232 166.061L603.226 166.061C586.218 163.426 570.841 169.347 552.689 176.336L551.846 176.66L551.845 176.66C533.811 183.617 517.436 180.732 503.655 171.913C489.856 163.082 478.644 148.29 471.027 131.433C465.453 119.012 460.84 106.288 458.523 93.3217L458.522 93.3185C458.445 92.9044 458.368 92.4865 458.29 92.0651C455.324 76.0727 451.394 54.8837 451.204 35.2577C451.008 15.0791 454.771 -3.24084 467.363 -12.645C469.854 -14.4237 473.752 -14.5635 478.543 -13.7312C483.308 -12.9034 488.803 -11.1446 494.369 -9.30708C494.84 -9.15151 495.312 -8.99538 495.784 -8.83922C500.868 -7.15661 505.959 -5.47161 510.497 -4.4656C515.427 -3.37249 519.847 -3.04464 522.926 -4.51916L522.929 -4.52019C530.35 -8.117 537.309 -12.0856 544.135 -15.9786C547.594 -17.9514 551.019 -19.9047 554.453 -21.7804C564.683 -27.368 575.036 -32.2941 586.758 -35.113L586.761 -35.1138C602.376 -38.9745 614.064 -51.6414 625.347 -64.9215C626.378 -66.1349 627.406 -67.3534 628.433 -68.5712C638.693 -80.7367 648.89 -92.8277 661.744 -99.0192L661.747 -99.0209C664.218 -100.234 667.424 -99.7864 671.175 -98.2136C674.909 -96.648 679.06 -94.0204 683.339 -91.0685C685.145 -89.8233 686.979 -88.5154 688.811 -87.2095C691.295 -85.4391 693.773 -83.6723 696.165 -82.0705C700.328 -79.2838 704.324 -76.9295 707.822 -75.8184C710.926 -74.7039 713.482 -74.6867 715.636 -76.0022L715.648 -76.0093L715.659 -76.0169C735.461 -89.6251 759.364 -86.7731 780.267 -75.9311C786.678 -72.591 793.465 -68.0888 799.586 -59.4277C799.628 -59.334 799.681 -59.2498 799.725 -59.1854C799.783 -59.0992 799.851 -59.0104 799.908 -58.9349L799.912 -58.9306C799.974 -58.8489 800.025 -58.7813 800.066 -58.7208C800.101 -58.6701 800.114 -58.644 800.117 -58.6375C800.118 -58.6355 800.118 -58.6352 800.118 -58.6367L800.139 -58.5733L800.177 -58.5179C808.156 -46.7472 812.213 -31.4276 813.055 -17.1645C813.899 -2.88401 811.514 10.227 806.727 17.6089C801.922 25.017 795.66 29.1323 789.138 32.8196C788.106 33.4033 787.065 33.9769 786.023 34.5518C780.5 37.5964 774.915 40.6754 770.118 45.4776C767.088 48.3933 764.468 51.7022 762.174 55.1607L762.173 55.1621C755.919 64.6609 751.955 76.1044 748.979 87.8369C747.045 95.4605 745.521 103.239 744.061 110.695C743.276 114.702 742.509 118.615 741.707 122.36Z" stroke="#377E8D" stroke-opacity="0.5" stroke-miterlimit="10"/>
<path d="M829.552 8.2118L829.554 8.20862C835.126 -0.370509 837.833 -15.6492 836.812 -32.2955C835.793 -48.9235 831.06 -66.804 821.871 -80.5545L821.835 -80.6088L821.814 -80.6706C821.761 -80.8241 821.687 -80.9255 821.567 -81.0834L821.559 -81.094C821.448 -81.2389 821.302 -81.4307 821.195 -81.7067C814.031 -91.8656 806.205 -97.0754 798.752 -101.124C774.574 -113.768 747.253 -117.304 724.45 -101.611C722.098 -99.9317 718.856 -100.31 715.482 -101.565C711.466 -103.031 706.859 -105.959 702.053 -109.4C699.278 -111.386 696.407 -113.565 693.532 -115.748C691.433 -117.341 689.332 -118.935 687.264 -120.458C682.338 -124.086 677.567 -127.333 673.299 -129.322C669.009 -131.321 665.369 -131.983 662.614 -130.673C654.573 -126.672 647.463 -120.503 640.755 -113.342C635.383 -107.606 630.288 -101.256 625.181 -94.8908C623.907 -93.3034 622.633 -91.7152 621.353 -90.1355C608.569 -74.3511 595.266 -59.3927 577.215 -55.2351L577.214 -55.2347C563.351 -52.0814 551.18 -46.2683 539.229 -39.6936C535.393 -37.5837 531.576 -35.3925 527.732 -33.1861C519.618 -28.5283 511.386 -23.8025 502.613 -19.6292M829.552 8.2118L442.54 139.047C442.54 139.048 442.541 139.049 442.541 139.05M829.552 8.2118C824.081 16.7762 816.851 21.5541 809.279 25.8661C808.095 26.5404 806.902 27.2038 805.705 27.8691C799.267 31.4468 792.735 35.0772 787.096 40.7354M829.552 8.2118L787.447 41.0914M502.613 -19.6292C502.613 -19.629 502.612 -19.6289 502.612 -19.6288L502.397 -20.0803L502.614 -19.6295C502.613 -19.6294 502.613 -19.6293 502.613 -19.6292ZM502.613 -19.6292C500.83 -18.7737 498.652 -18.4716 496.216 -18.5498C493.776 -18.628 491.045 -19.0888 488.134 -19.7894C482.873 -21.0557 476.964 -23.1216 471.051 -25.1888C470.426 -25.4072 469.801 -25.6257 469.177 -25.8433C462.628 -28.1256 456.159 -30.3058 450.568 -31.3438C444.945 -32.3877 440.376 -32.2418 437.497 -30.0712L437.494 -30.0689C430.137 -24.6096 425.419 -16.4625 422.599 -6.68335C419.778 3.09812 418.866 14.4825 419.101 26.366C419.541 48.537 423.971 72.35 427.361 90.573C427.606 91.888 427.845 93.1739 428.077 94.428C430.888 109.62 436.316 124.725 442.541 139.05M442.541 139.05C451.333 158.562 464.275 175.885 480.302 186.278C496.311 196.658 515.413 200.138 536.617 191.965M442.541 139.05L536.617 191.965M536.617 191.965C557.914 183.621 575.644 176.743 595.228 179.958C603.732 181.335 612.558 184.47 621.868 189.831C629.662 194.229 637.149 199.329 644.567 204.381C646.101 205.425 647.631 206.468 649.161 207.502C658.101 213.544 667.02 219.297 676.391 223.499C689.212 229.193 703.836 232.806 716.447 226.143C730.426 218.743 738.538 201.989 743.866 183.406C747.523 170.655 749.844 157.148 751.873 145.34C752.799 139.946 753.665 134.906 754.57 130.455C755.289 126.829 755.99 123.076 756.706 119.242C758.461 109.844 760.306 99.9629 762.733 90.2762C766.152 76.6311 770.737 63.3166 777.89 52.1827M536.617 191.965L778.311 52.453M777.89 52.1827L778.311 52.453M777.89 52.1827C777.89 52.1833 777.89 52.184 777.889 52.1846L778.311 52.453M777.89 52.1827C780.499 48.082 783.671 44.052 787.096 40.7354M778.311 52.453C780.904 48.3778 784.053 44.3776 787.447 41.0914M787.096 40.7354C787.095 40.7364 787.094 40.7374 787.093 40.7384L787.447 41.0914M787.096 40.7354C787.097 40.7343 787.098 40.7332 787.099 40.7322L787.447 41.0914" stroke="#377E8D" stroke-opacity="0.5" stroke-miterlimit="10"/>
<path d="M723.689 247.317L723.693 247.314C739.886 239.022 749.112 219.899 755.096 198.668C759.137 184.331 761.674 169.143 763.902 155.804C764.973 149.393 765.973 143.409 767.034 138.153C767.918 133.701 768.773 129.079 769.648 124.351C771.568 113.968 773.583 103.078 776.207 92.381C780.028 76.806 785.154 61.5801 793.207 48.8098C796.135 44.0611 799.703 39.6322 803.67 35.6034C810.044 29.1297 817.471 25.0107 824.807 20.9421C826.169 20.1871 827.527 19.434 828.874 18.6678C837.504 13.7616 845.761 8.30058 851.977 -1.57962L851.981 -1.58595C858.338 -11.3626 861.367 -28.8093 860.14 -47.8102C858.914 -66.7762 853.455 -87.1774 842.956 -102.861C842.737 -103.086 842.581 -103.327 842.452 -103.526L842.443 -103.54C842.299 -103.763 842.186 -103.935 842.03 -104.088L841.996 -104.122L841.968 -104.161C834.07 -115.697 824.875 -121.78 816.45 -126.306C789.313 -140.6 758.246 -144.979 732.201 -127.113L732.19 -127.105C729.378 -125.285 725.922 -125.559 722.107 -127.226C717.532 -128.969 712.308 -132.449 706.865 -136.544C703.656 -138.958 700.344 -141.607 697.031 -144.258C694.723 -146.105 692.414 -147.952 690.14 -149.72C684.577 -154.044 679.192 -157.917 674.376 -160.294C669.536 -162.683 665.422 -163.485 662.301 -161.923C653.211 -157.299 645.224 -150.151 637.715 -141.856C631.735 -135.25 626.078 -127.939 620.411 -120.617C618.96 -118.741 617.507 -116.865 616.049 -114.999C601.784 -96.7498 586.926 -79.5243 566.485 -74.9502L566.483 -74.9496C550.479 -71.4617 536.547 -64.7816 522.885 -57.1905C518.536 -54.7739 514.21 -52.2622 509.852 -49.7321C500.541 -44.3259 491.085 -38.8361 480.955 -34.0131M723.689 247.317L480.739 -34.4639M723.689 247.317C709.498 254.785 692.486 250.401 677.986 243.686C667.413 238.698 657.393 232.059 647.332 225.169C646.115 224.336 644.898 223.499 643.679 222.661C634.827 216.577 625.89 210.433 616.498 205.217M723.689 247.317L616.254 205.653M480.955 -34.0131C480.955 -34.0129 480.954 -34.0127 480.954 -34.0125L480.739 -34.4639M480.955 -34.0131C480.955 -34.0132 480.955 -34.0133 480.956 -34.0133L480.739 -34.4639M480.955 -34.0131C478.942 -33.0452 476.463 -32.7168 473.677 -32.831C470.888 -32.9453 467.755 -33.505 464.411 -34.3459C458.255 -35.8936 451.316 -38.4114 444.389 -40.9247C443.793 -41.1409 443.197 -41.3571 442.602 -41.5726C435.071 -44.2998 427.635 -46.9221 421.244 -48.2305C418.05 -48.8844 415.14 -49.2049 412.624 -49.0539C410.109 -48.9028 408.021 -48.2825 406.436 -47.0857L406.434 -47.0843C398.031 -40.8035 392.705 -31.4211 389.574 -20.1699C386.442 -8.91638 385.515 4.17523 385.889 17.8226C386.545 41.8414 391.224 67.4916 394.917 87.7348C395.422 90.4999 395.907 93.1641 396.362 95.7095L396.363 95.7111C399.43 113.205 405.59 130.449 413.102 146.986L413.103 146.987C423.068 169.156 437.819 189.05 456.136 200.986C474.432 212.908 496.299 216.903 520.59 207.277L520.595 207.275C544.745 197.956 564.617 190.345 586.511 194.099M480.739 -34.4639C473.396 -30.9321 459.016 -36.1497 444.554 -41.3967C428.905 -47.0747 413.16 -52.7873 406.135 -47.4848C374.108 -23.5465 386.537 44.5839 394.426 87.8272C394.93 90.5917 395.416 93.2544 395.87 95.7974C398.948 113.346 405.124 130.632 412.646 147.192C432.629 191.645 471.865 227.123 520.775 207.742C544.954 198.411 564.695 190.864 586.43 194.592M586.511 194.099C586.51 194.099 586.509 194.099 586.509 194.099L586.43 194.592M586.511 194.099C586.512 194.099 586.514 194.099 586.515 194.1L586.43 194.592M586.511 194.099C596.133 195.627 605.917 199.233 616.498 205.217M586.43 194.592C595.984 196.109 605.712 199.692 616.254 205.653M616.254 205.653L616.496 205.216C616.497 205.216 616.497 205.216 616.498 205.217M616.254 205.653L616.5 205.218C616.499 205.217 616.498 205.217 616.498 205.217" stroke="#377E8D" stroke-opacity="0.5" stroke-miterlimit="10"/>
<path d="M679.498 263.635L679.501 263.637C695.751 271.605 714.84 276.612 731.173 268.405M679.498 263.635L731.399 268.852M679.498 263.635C667.765 257.98 656.684 250.572 645.582 242.876C644.018 241.792 642.454 240.701 640.887 239.61C631.344 232.96 621.717 226.253 611.613 220.446C599.906 213.512 588.925 209.518 578.428 207.758L578.426 207.758C554.068 203.785 531.741 211.968 505.045 222.424L505.043 222.425C477.581 233.268 452.987 228.679 432.462 215.194C411.917 201.695 395.436 179.27 384.297 154.445L384.295 154.443C375.814 135.847 368.922 116.461 365.36 96.7428C364.787 93.5607 364.168 90.2094 363.524 86.717C359.346 64.0863 354.075 35.5347 353.198 8.76894C352.692 -6.67672 353.651 -21.4979 357.114 -34.2222C360.577 -46.9442 366.534 -57.5369 376.003 -64.5802C377.804 -65.9176 380.175 -66.5912 383.027 -66.7278C385.879 -66.8643 389.177 -66.4619 392.793 -65.6804C400.028 -64.1168 408.444 -61.0574 416.958 -57.8854C417.604 -57.6446 418.251 -57.4032 418.898 -57.1617C426.756 -54.2289 434.622 -51.2931 441.587 -49.4763C445.358 -48.4926 448.885 -47.8314 452.018 -47.6791C455.148 -47.5271 457.923 -47.8804 460.165 -48.9603C471.283 -54.2786 481.713 -60.3517 492.014 -66.3507C497.069 -69.294 502.093 -72.2196 507.152 -75.0294C522.545 -83.5776 538.319 -91.0865 556.465 -94.9092L556.466 -94.9094C579.218 -99.7393 595.652 -119.172 611.398 -139.886C613.108 -142.136 614.81 -144.401 616.512 -146.666C622.663 -154.851 628.807 -163.028 635.299 -170.435C643.584 -179.888 652.404 -188.05 662.462 -193.336L662.463 -193.336C665.829 -195.108 670.351 -194.164 675.714 -191.392C681.046 -188.636 687.045 -184.159 693.255 -179.159C695.829 -177.086 698.444 -174.919 701.059 -172.753C704.728 -169.713 708.397 -166.673 711.952 -163.893C718.046 -159.128 723.889 -155.059 728.983 -152.963L728.988 -152.961M679.498 263.635L728.988 -152.961M731.173 268.405C731.174 268.405 731.174 268.405 731.174 268.405L731.399 268.852M731.173 268.405C731.173 268.405 731.173 268.406 731.173 268.406L731.399 268.852M731.173 268.405C749.423 259.143 759.824 237.627 766.533 213.756C771.154 197.312 773.999 179.859 776.476 164.662C777.594 157.806 778.637 151.408 779.734 145.77M731.399 268.852C762.579 253.027 770.902 201.969 776.976 164.704C778.093 157.858 779.133 151.477 780.225 145.866M779.734 145.77C779.734 145.77 779.734 145.771 779.734 145.771L780.225 145.866M779.734 145.77C780.698 140.746 781.629 135.515 782.582 130.156C784.645 118.558 786.815 106.36 789.668 94.3576C793.842 76.8014 799.489 59.6023 808.445 45.1941L808.448 45.1897C811.914 39.7405 815.555 34.7516 819.927 30.3109M779.734 145.77L780.225 145.866M780.225 145.866L819.927 30.3109M819.927 30.3109L820.285 30.6601L819.929 30.3093C819.928 30.3098 819.928 30.3104 819.927 30.3109ZM728.988 -152.961C733.297 -151.244 737.197 -150.527 740.198 -152.702L728.988 -152.961ZM874.168 -11.2965C874.167 -11.2955 874.167 -11.2945 874.166 -11.2934L874.589 -11.0263L874.168 -11.2965ZM864.012 -125.209C864.025 -125.196 864.038 -125.183 864.051 -125.17L864.402 -125.526L863.985 -125.25C863.994 -125.236 864.003 -125.223 864.012 -125.209ZM834.382 -151.572L834.618 -152.013L834.377 -151.575C834.378 -151.574 834.379 -151.574 834.381 -151.573C834.381 -151.573 834.382 -151.572 834.382 -151.572Z" stroke="#377E8D" stroke-opacity="0.5" stroke-miterlimit="10"/>
<path d="M439.302 -63.3499C451.778 -69.3187 463.406 -76.1472 474.881 -82.8865C480.435 -86.1483 485.953 -89.3891 491.514 -92.5014C508.588 -102.056 526.123 -110.432 546.531 -114.631L546.532 -114.631C571.672 -119.877 589.659 -141.574 606.886 -164.753C608.768 -167.285 610.641 -169.835 612.513 -172.384C619.231 -181.531 625.945 -190.672 633.052 -198.953C642.137 -209.539 651.833 -218.68 662.939 -224.589C666.636 -226.538 671.612 -225.427 677.508 -222.267C683.372 -219.124 689.975 -214.048 696.811 -208.382C699.684 -206.001 702.603 -203.511 705.521 -201.022C709.523 -197.608 713.525 -194.194 717.406 -191.063C724.121 -185.644 730.557 -180.999 736.168 -178.547C740.916 -176.419 745.275 -175.882 748.505 -178.127C780.559 -200.173 818.948 -194.581 852.395 -176.6C862.815 -170.898 874.173 -163.162 884.165 -148.616L884.192 -148.577L884.226 -148.543C884.37 -148.402 884.497 -148.19 884.668 -147.897L884.684 -147.869C884.825 -147.626 885.003 -147.32 885.233 -147.08C898.267 -127.48 905.038 -102.078 906.587 -78.4726C908.139 -54.8326 904.447 -33.1044 896.675 -20.8503C888.887 -8.57235 878.554 -1.80289 867.805 4.29324C866.214 5.19533 864.613 6.08316 863.01 6.97237C853.798 12.0817 844.502 17.2372 836.586 25.4131L836.578 25.4221C831.907 30.4877 827.635 35.9522 823.847 42.0543L823.845 42.0563C813.989 58.1013 807.8 77.2126 803.224 96.6997C800.166 109.722 797.823 122.943 795.59 135.538C794.484 141.781 793.405 147.87 792.279 153.705L792.279 153.706C791.088 159.908 789.961 166.966 788.75 174.545C786.062 191.368 782.965 210.752 777.862 229.016C770.458 255.516 758.884 279.423 738.417 289.578L738.415 289.579C720.501 298.592 699.023 292.813 681.093 283.823L681.092 283.822L439.086 -63.8009M439.302 -63.3499L439.086 -63.8009M439.302 -63.3499C439.302 -63.3501 439.303 -63.3503 439.303 -63.3506L439.086 -63.8009M439.302 -63.3499C436.83 -62.1582 433.76 -61.7796 430.286 -61.969C426.808 -62.1587 422.888 -62.9203 418.691 -64.0449C410.966 -66.115 402.235 -69.4347 393.504 -72.7543C392.753 -73.04 392.001 -73.3256 391.251 -73.6105C381.759 -77.2122 372.372 -80.6863 364.305 -82.4719C360.273 -83.3643 356.595 -83.8293 353.416 -83.6851C350.236 -83.541 347.589 -82.7895 345.582 -81.2831L345.579 -81.2813C335.045 -73.4755 328.471 -61.6772 324.697 -47.4957C320.923 -33.3119 319.959 -16.7788 320.623 0.440095C321.748 29.6199 327.54 60.6807 332.166 85.4872C333 89.9615 333.796 94.2324 334.52 98.252M439.086 -63.8009C429.993 -59.4157 411.901 -66.2945 393.676 -73.2237C373.953 -80.7227 354.075 -88.2806 345.282 -81.6831C305.923 -52.5174 321.591 31.5055 331.676 85.5872C332.51 90.0595 333.305 94.3271 334.029 98.342M334.52 98.252C334.52 98.2517 334.52 98.2514 334.52 98.2511L334.029 98.342M334.52 98.252C334.521 98.2525 334.521 98.2529 334.521 98.2534L334.029 98.342M334.52 98.252C338.577 120.194 346.202 141.723 355.417 162.462M334.029 98.342C338.095 120.336 345.735 141.904 354.96 162.666M354.96 162.666L355.416 162.461C355.416 162.462 355.417 162.462 355.417 162.462M354.96 162.666C379.718 217.975 428.011 262.845 489.843 238.513M354.96 162.666L355.417 162.463C355.417 162.462 355.417 162.462 355.417 162.462M355.417 162.462C367.771 190.061 385.981 215.016 408.774 230.037C431.545 245.044 458.907 250.15 489.66 238.048M489.843 238.513L489.659 238.049C489.659 238.048 489.66 238.048 489.66 238.048M489.843 238.513C519.332 226.836 543.755 218.219 570.268 222.706M489.843 238.513L489.66 238.048M489.66 238.048C519.136 226.376 543.683 217.7 570.351 222.213M570.268 222.706L570.349 222.212C570.35 222.213 570.35 222.213 570.351 222.213M570.268 222.706C581.812 224.605 593.694 229.045 606.633 236.579L606.884 236.146C606.883 236.146 606.882 236.145 606.88 236.144C593.902 228.588 581.965 224.123 570.351 222.213M570.268 222.706L570.351 222.213" stroke="#377E8D" stroke-opacity="0.5" stroke-miterlimit="10"/>
<path d="M682.683 304.009L682.686 304.011C702.369 314.256 725.923 320.656 745.98 310.907C768.543 299.901 781.271 273.543 789.41 244.333C794.958 224.422 798.348 203.299 801.293 184.95C802.668 176.386 803.945 168.426 805.3 161.476C806.483 155.175 807.618 148.593 808.782 141.839C811.179 127.927 813.703 113.282 817.045 98.8505C822.013 77.4028 828.803 56.358 839.722 38.7534C843.82 32.0184 848.408 25.9076 853.807 20.5845C862.483 11.5691 872.692 5.8774 882.824 0.229201C884.556 -0.736569 886.286 -1.70106 888.006 -2.68065C899.804 -9.40123 911.166 -16.8546 919.74 -30.3319C928.298 -43.7839 932.311 -67.6804 930.582 -93.6854C928.855 -119.666 921.403 -147.639 907.149 -169.222C906.894 -169.557 906.722 -169.853 906.564 -170.125L906.561 -170.131C906.399 -170.408 906.252 -170.661 906.032 -170.949L906.025 -170.959L906.018 -170.969C894.98 -187.018 882.582 -195.462 871.206 -201.632C834.802 -221.262 792.669 -227.698 757.373 -203.48L757.362 -203.473C753.655 -201.074 748.982 -201.77 743.6 -204.21C737.489 -206.956 730.447 -212.159 723.084 -218.233C718.841 -221.733 714.463 -225.547 710.083 -229.363C706.869 -232.163 703.653 -234.965 700.487 -237.645C692.985 -243.997 685.738 -249.691 679.318 -253.22C672.862 -256.769 667.425 -258.027 663.418 -255.843L663.416 -255.842C651.262 -249.31 640.694 -239.175 630.815 -227.437C623.119 -218.293 615.86 -208.202 608.6 -198.109C606.538 -195.242 604.476 -192.375 602.404 -189.53C583.706 -163.857 564.165 -139.895 536.596 -134.352C514.046 -129.82 494.69 -120.555 475.864 -110.003C469.894 -106.656 463.971 -103.177 458.016 -99.6782C445.216 -92.1579 432.264 -84.5486 418.356 -77.9776M682.683 304.009L418.14 -78.4289M682.683 304.009C668.55 296.782 655.326 287.581 642.113 278.181C640.986 277.379 639.86 276.576 638.733 275.772C626.651 267.161 614.515 258.51 601.67 251.213M682.683 304.009L561.795 236.035M418.356 -77.9776C418.355 -77.9773 418.355 -77.9771 418.354 -77.9768L418.14 -78.4289M418.356 -77.9776C418.356 -77.9779 418.357 -77.9783 418.358 -77.9786L418.14 -78.4289M418.356 -77.9776C415.655 -76.6744 412.289 -76.2706 408.472 -76.4978C404.65 -76.7253 400.336 -77.5881 395.713 -78.8555C387.179 -81.1947 377.522 -84.9322 367.862 -88.6711C367.058 -88.9821 366.254 -89.2932 365.451 -89.6034C354.978 -93.6499 344.61 -97.561 335.7 -99.602C331.246 -100.622 327.181 -101.169 323.664 -101.04C320.148 -100.91 317.217 -100.106 314.993 -98.4587M418.14 -78.4289C408.16 -73.6108 388.173 -81.3462 368.037 -89.1396C346.296 -97.5536 324.382 -106.035 314.695 -98.8605M314.993 -98.4587C314.993 -98.4589 314.994 -98.4592 314.994 -98.4595L314.695 -98.8605M314.993 -98.4587C303.413 -89.8304 296.217 -76.7909 292.113 -61.1311C288.01 -45.4688 287.01 -27.2207 287.797 -8.23336C289.117 23.6367 295.465 57.5017 300.544 84.5941C301.517 89.7887 302.444 94.7343 303.28 99.3691L303.28 99.3695C307.674 123.85 316.268 147.438 326.372 170.001L326.373 170.001C339.9 200.255 359.92 227.781 384.971 244.355C410.001 260.915 440.068 266.555 473.79 253.041L473.791 253.041C506.041 240.154 532.732 230.744 561.795 236.035M314.993 -98.4587L314.695 -98.8605M314.695 -98.8605L561.795 236.035M561.795 236.035C561.794 236.035 561.793 236.035 561.792 236.035L561.707 236.528M561.795 236.035L473.976 253.505C506.239 240.614 532.803 231.264 561.707 236.528M561.795 236.035C574.282 238.178 587.414 243.03 601.67 251.213M561.795 236.035C561.795 236.035 561.796 236.036 561.797 236.036L561.707 236.528M561.795 236.035L561.707 236.528M601.67 251.213C601.67 251.213 601.669 251.212 601.668 251.212L601.421 251.647L601.67 251.213Z" stroke="#377E8D" stroke-opacity="0.5" stroke-miterlimit="10"/>
<path d="M684.275 324.196L684.274 324.195C668.941 316.182 654.616 306.095 640.323 295.769C638.861 294.712 637.399 293.653 635.936 292.594C623.11 283.304 610.23 273.974 596.62 265.965L596.618 265.963C581.322 257.072 567.23 251.748 553.624 249.456C521.861 244.028 493.27 254.087 458.164 267.95L458.162 267.951C421.15 282.723 388.295 276.508 361.007 258.395C333.698 240.268 311.949 210.212 297.247 177.302L297.247 177.301C286.175 152.683 277.085 126.872 272.196 100.164C271.248 94.9272 270.189 89.3219 269.076 83.4243C263.507 53.9303 256.558 17.1249 255.025 -17.5236C254.105 -38.3091 255.136 -58.2867 259.572 -75.4199C264.007 -92.5505 271.834 -106.801 284.481 -116.192C286.921 -117.98 290.136 -118.841 293.986 -118.962C297.837 -119.082 302.287 -118.461 307.159 -117.322C316.906 -115.045 328.247 -110.719 339.698 -106.242C340.614 -105.884 341.532 -105.525 342.449 -105.166C352.973 -101.044 363.485 -96.9269 372.775 -94.3234C377.827 -92.9077 382.538 -91.9335 386.709 -91.6518C390.875 -91.3704 394.544 -91.7771 397.483 -93.1614L397.486 -93.163C412.317 -100.281 426.149 -108.46 439.82 -116.544C446.575 -120.539 453.291 -124.51 460.069 -128.319C480.586 -139.847 501.724 -149.921 526.418 -154.788L526.418 -154.788C556.253 -160.706 577.368 -186.87 597.557 -214.979C599.851 -218.173 602.133 -221.392 604.415 -224.612C612.196 -235.588 619.977 -246.563 628.222 -256.522C638.883 -269.399 650.288 -280.534 663.411 -287.729C667.75 -290.09 673.647 -288.649 680.644 -284.69C687.603 -280.752 695.464 -274.429 703.603 -267.381C707.054 -264.393 710.56 -261.269 714.064 -258.148C718.801 -253.928 723.535 -249.711 728.126 -245.833C736.117 -239.083 743.757 -233.29 750.385 -230.188C756.166 -227.354 761.413 -226.568 765.287 -229.306C803.825 -255.692 849.618 -248.649 889.054 -227.137C901.459 -220.265 914.882 -211.124 926.956 -193.608C927.233 -192.845 927.74 -192.18 928.192 -191.587L928.206 -191.569C943.787 -168.048 951.914 -137.516 953.819 -109.171C955.725 -80.8013 951.391 -54.7351 942.165 -40.1249L942.165 -40.1245C932.846 -25.3303 920.515 -17.2138 907.689 -9.90936C905.792 -8.82927 903.884 -7.76647 901.972 -6.70199C890.975 -0.578001 879.878 5.6019 870.382 15.4504C864.432 21.4936 859.533 28.2419 855.045 35.37L855.041 35.3765C843.262 54.7367 835.95 77.7531 830.59 101.162C827.054 116.603 824.361 132.246 821.799 147.132C820.478 154.804 819.193 162.274 817.844 169.412C816.45 176.748 815.128 185.121 813.705 194.127C810.514 214.329 806.819 237.719 800.69 259.741C791.826 291.59 777.924 320.343 753.301 332.319C731.664 342.873 705.641 335.464 684.275 324.196Z" stroke="#377E8D" stroke-opacity="0.5" stroke-miterlimit="10"/>
<path d="M760.782 353.41L760.78 353.412C737.085 364.935 708.909 356.67 685.865 344.381L685.63 344.822L685.865 344.381C669.331 335.581 653.926 324.667 638.533 313.554C637.365 312.711 636.198 311.867 635.03 311.023C620.808 300.74 606.524 290.413 591.332 281.588L591.33 281.587C574.756 272.07 559.79 266.517 544.995 263.836L544.992 263.835C510.919 257.868 480.105 268.42 442.221 283.499L442.219 283.5C402.118 299.726 366.557 292.975 337.041 273.3C307.503 253.611 284.004 220.963 268.129 185.399L268.128 185.397C256.003 158.478 245.945 130.609 240.801 101.602L240.308 101.689L240.801 101.602C239.677 95.2724 238.397 88.4413 237.045 81.2235C231.14 49.6981 223.853 10.7937 222.132 -25.9081C221.074 -48.4569 222.12 -70.1418 226.866 -88.7472C231.611 -107.35 240.046 -122.838 253.74 -133.052C256.357 -134.998 259.824 -135.929 263.987 -136.052C268.15 -136.175 272.97 -135.488 278.253 -134.236C288.82 -131.732 301.141 -126.994 313.584 -122.093C314.565 -121.707 315.546 -121.319 316.528 -120.932C327.981 -116.413 339.424 -111.898 349.529 -109.037C355.016 -107.484 360.128 -106.412 364.649 -106.095C369.165 -105.779 373.133 -106.212 376.301 -107.708L376.302 -107.709C392.561 -115.428 407.716 -124.387 422.71 -133.251C429.869 -137.484 436.992 -141.695 444.182 -145.739C466.45 -158.265 489.409 -169.226 516.246 -174.428C532.387 -177.538 546.119 -186.204 558.517 -197.905C570.911 -209.603 581.996 -224.357 592.837 -239.674C595.318 -243.179 597.785 -246.713 600.253 -250.247C608.58 -262.173 616.909 -274.1 625.747 -284.924C637.201 -298.952 649.478 -311.083 663.649 -318.901C665.951 -320.158 668.676 -320.388 671.784 -319.751C674.897 -319.114 678.363 -317.612 682.102 -315.448C689.582 -311.119 698.054 -304.199 706.835 -296.49C710.563 -293.217 714.352 -289.796 718.14 -286.376C723.249 -281.764 728.356 -277.154 733.311 -272.907C741.946 -265.507 750.198 -259.141 757.345 -255.686L757.354 -255.682C763.676 -252.781 769.002 -251.754 773.352 -254.647L773.358 -254.651C815.138 -283.211 864.438 -275.243 907.072 -252.163C920.75 -244.666 935.295 -234.581 948.334 -215.798C948.61 -215.035 949.117 -214.37 949.57 -213.776L949.583 -213.759C966.413 -188.14 975.196 -155.108 977.257 -124.459C979.32 -93.7856 974.645 -65.6084 964.673 -49.6795C954.687 -33.7282 941.329 -24.9284 927.423 -16.989C925.387 -15.8263 923.337 -14.6816 921.285 -13.5351C909.342 -6.86378 897.292 -0.132766 887.04 10.5536L887.036 10.5578C880.78 17.2334 875.488 24.3782 870.682 32.1516L870.682 32.153C857.84 53.0729 849.927 78.0234 844.174 103.394C840.352 120.25 837.478 137.323 834.749 153.532C833.372 161.709 832.032 169.667 830.627 177.266C829.14 185.163 827.733 194.193 826.217 203.918C822.816 225.747 818.869 251.073 812.258 274.918C802.698 309.397 787.622 340.542 760.782 353.41Z" stroke="#377E8D" stroke-opacity="0.5" stroke-miterlimit="10"/>
<path d="M687.457 364.568L687.455 364.566C669.722 354.981 653.216 343.18 636.672 331.23C635.998 330.744 635.325 330.257 634.651 329.77C618.785 318.305 602.836 306.78 585.726 297.057C568.026 286.591 551.628 280.733 535.962 277.821L535.958 277.82C499.573 271.313 466.617 282.599 425.96 298.892L425.959 298.892C382.806 316.295 344.517 308.95 312.743 287.722C280.946 266.479 255.659 231.321 238.611 193.103C225.752 164.041 214.962 134.029 209.323 102.798L209.323 102.797C208.122 96.1965 206.763 89.083 205.328 81.5702C198.816 47.4803 190.734 5.17179 188.758 -34.7258C187.552 -59.0675 188.622 -82.4794 193.696 -102.554C198.77 -122.627 207.836 -139.326 222.597 -150.303C225.43 -152.39 229.182 -153.374 233.681 -153.481C238.18 -153.589 243.388 -152.82 249.092 -151.44C260.503 -148.681 273.803 -143.506 287.229 -138.16C288.263 -137.749 289.297 -137.336 290.331 -136.924C302.714 -131.985 315.082 -127.052 325.995 -123.922C331.908 -122.226 337.414 -121.053 342.279 -120.698C347.14 -120.344 351.402 -120.803 354.799 -122.411L354.8 -122.411C372.293 -130.733 388.553 -140.402 404.646 -149.971C412.329 -154.54 419.974 -159.086 427.696 -163.452C451.616 -176.975 476.337 -188.804 505.437 -194.382C522.77 -197.699 537.506 -207.025 550.801 -219.639C564.091 -232.25 575.964 -248.171 587.567 -264.712C590.289 -268.593 592.997 -272.509 595.704 -276.424C604.544 -289.208 613.384 -301.991 622.756 -313.606C634.996 -328.775 648.111 -341.905 663.25 -350.386C665.739 -351.773 668.682 -352.031 672.03 -351.343C675.384 -350.654 679.116 -349.021 683.139 -346.666C691.185 -341.954 700.294 -334.413 709.725 -326.014C713.764 -322.417 717.868 -318.657 721.969 -314.9C727.42 -309.906 732.866 -304.916 738.149 -300.319C747.412 -292.258 756.254 -285.33 763.901 -281.58C770.648 -278.271 776.439 -277.42 781.021 -280.385L781.032 -280.393C825.58 -310.962 878.78 -302.467 924.45 -277.502L924.451 -277.501C939.418 -269.372 955.015 -258.567 968.87 -238.168L968.877 -238.156L968.886 -238.146C969.119 -237.84 969.374 -237.474 969.637 -237.096C969.893 -236.728 970.156 -236.348 970.402 -236.024C988.56 -208.468 998.018 -172.877 1000.26 -139.863C1002.5 -106.825 997.5 -76.478 986.861 -59.391L987.286 -59.1267L986.861 -59.3906C976.13 -42.1225 961.744 -32.6391 946.78 -24.1054C944.578 -22.85 942.363 -21.6146 940.145 -20.3775C927.305 -13.2166 914.364 -5.9991 903.38 5.49903L903.377 5.50198C896.726 12.5785 890.882 20.444 885.763 28.8583L885.761 28.8609C872.179 51.4952 863.805 78.396 857.689 105.717C853.708 123.506 850.678 141.506 847.795 158.63C846.253 167.793 844.753 176.705 843.172 185.2L843.172 185.201C841.644 193.481 840.191 202.923 838.626 213.087C834.981 236.766 830.732 264.365 823.538 290.327C813.254 327.445 797.004 360.984 768.105 374.822C742.744 386.918 712.255 378.113 687.457 364.568Z" stroke="#377E8D" stroke-opacity="0.5" stroke-miterlimit="10"/>
<path d="M178.239 103.593C176.926 96.3785 175.432 88.5824 173.853 80.3364C166.881 43.9464 158.232 -1.20434 156.057 -43.8071C154.723 -69.9321 155.827 -95.0662 161.234 -116.608C166.641 -138.149 176.339 -156.06 192.167 -167.8L192.167 -167.8C195.207 -170.057 199.236 -171.115 204.066 -171.224C208.895 -171.333 214.487 -170.491 220.611 -168.99C232.861 -165.986 247.143 -160.366 261.556 -154.561C262.692 -154.104 263.829 -153.645 264.966 -153.186C278.233 -147.833 291.479 -142.489 303.161 -139.085C309.505 -137.237 315.408 -135.955 320.619 -135.556C325.825 -135.158 330.384 -135.639 334.01 -137.358L334.011 -137.359C352.626 -146.228 369.959 -156.529 387.123 -166.729C395.47 -171.689 403.776 -176.625 412.171 -181.362C437.853 -195.852 464.416 -208.511 495.659 -214.423L495.66 -214.423C514.126 -217.928 529.807 -227.893 543.945 -241.402C558.08 -254.908 570.697 -271.981 583.031 -289.735C585.938 -293.921 588.83 -298.144 591.722 -302.368C601.107 -316.075 610.497 -329.789 620.462 -342.261C633.494 -358.572 647.476 -372.712 663.644 -381.877C666.269 -383.342 669.385 -383.596 672.94 -382.834C676.501 -382.07 680.47 -380.294 684.754 -377.742C693.321 -372.639 703.04 -364.502 713.114 -355.442C717.429 -351.56 721.814 -347.504 726.197 -343.45C732.022 -338.063 737.843 -332.679 743.491 -327.712C753.395 -319.003 762.847 -311.503 771.012 -307.399L771.016 -307.397C778.062 -303.942 784.512 -302.756 789.264 -306.062C837.055 -338.801 893.916 -329.697 942.62 -302.849L942.623 -302.847C958.546 -294.249 975.181 -282.738 990.081 -260.837C990.366 -260.396 990.631 -260.016 990.891 -259.643C991.152 -259.267 991.409 -258.897 991.686 -258.47L991.687 -258.468C1011.06 -228.93 1021.26 -190.793 1023.73 -155.429C1026.21 -120.046 1020.95 -87.5518 1009.53 -69.2672L1009.53 -69.2668C998.009 -50.8001 982.574 -40.6924 966.55 -31.5636C964.305 -30.2844 962.047 -29.024 959.786 -27.7621C945.933 -20.0292 931.979 -12.2399 920.193 0.282739L920.19 0.28617C912.992 8.07856 906.753 16.3438 901.319 25.4007C886.716 49.7127 877.74 78.5465 871.222 107.799C866.923 127.093 863.688 146.6 860.616 165.121C859.032 174.67 857.492 183.957 855.872 192.817L855.872 192.817C854.282 201.591 852.771 211.588 851.143 222.351C847.296 247.8 842.801 277.529 835.094 305.475C824.125 345.251 806.701 381.184 775.583 395.914L775.582 395.915C748.162 408.98 715.522 399.318 689.044 384.752L689.043 384.752C670.112 374.381 652.565 361.674 635.031 348.768C633.877 347.919 632.723 347.069 631.569 346.218C615.192 334.152 598.748 322.035 581.15 311.645L581.149 311.644C562.174 300.553 544.816 294.223 528.032 291.16L528.03 291.16C489.098 284.196 453.683 296.055 410.486 313.483C364.083 332.262 323.047 324.461 289.036 301.74C255.002 279.004 227.985 241.315 209.722 200.322C195.976 169.44 184.372 137.048 178.239 103.593ZM178.239 103.593C178.239 103.593 178.239 103.593 178.239 103.594L177.747 103.683M178.239 103.593C178.239 103.593 178.238 103.593 178.238 103.593L177.747 103.683M177.747 103.683C183.889 137.19 195.51 169.621 209.266 200.525M177.747 103.683C176.436 96.4764 174.943 88.6861 173.364 80.4442C157.842 -0.577773 133.958 -125.246 191.869 -168.202C204.975 -177.931 235.194 -165.738 265.147 -153.652C292.831 -142.482 320.287 -131.404 333.796 -137.81C352.39 -146.67 369.689 -156.95 386.841 -167.143C420.697 -187.263 453.988 -207.046 495.566 -214.914C536.565 -222.696 563.857 -262.556 591.302 -302.639C612.966 -334.281 634.726 -366.061 663.399 -382.312C676.816 -389.806 701.764 -366.73 726.548 -343.807C742.565 -328.992 758.514 -314.24 771.237 -307.846L209.266 200.525M209.266 200.525C245.839 282.619 317.536 351.639 410.673 313.947C453.873 296.518 489.165 284.716 527.942 291.652L209.266 200.525Z" stroke="#377E8D" stroke-opacity="0.5" stroke-miterlimit="10"/>
<path d="M868.498 200.988L868.498 200.99C866.835 210.213 865.249 220.722 863.541 232.041C859.444 259.193 854.644 291.006 846.385 320.913C834.68 363.299 816.082 401.626 782.905 417.327C753.82 430.962 719.106 420.681 690.633 404.938C670.501 393.78 651.854 380.187 633.229 366.523L631.822 365.49C613.675 352.175 595.514 338.85 576.023 327.745C556.011 315.947 537.696 309.147 519.795 305.934L519.794 305.934C478.634 298.669 441 311.021 395.026 329.664C345.452 349.661 301.689 341.264 265.449 316.98C229.186 292.681 200.441 252.461 181.004 208.813L181.004 208.813C166.288 175.871 153.951 141.339 147.562 105.581L147.562 105.581C146.081 97.3233 144.371 88.3533 142.558 78.8436C135.214 40.311 126.18 -7.08252 123.812 -51.8483C122.335 -79.7515 123.451 -106.6 129.167 -129.618C134.883 -152.635 145.188 -171.783 162.063 -184.346L162.065 -184.347C165.282 -186.763 169.559 -187.889 174.695 -187.998C179.83 -188.107 185.782 -187.196 192.305 -185.578C205.353 -182.34 220.586 -176.298 235.961 -170.058C237.156 -169.573 238.351 -169.087 239.546 -168.602C253.719 -162.84 267.873 -157.085 280.352 -153.416C287.12 -151.427 293.415 -150.044 298.97 -149.608C304.52 -149.173 309.373 -149.679 313.227 -151.51L313.228 -151.511C333.078 -160.983 351.545 -172.003 369.836 -182.918C378.718 -188.218 387.558 -193.494 396.494 -198.555C423.857 -214.052 452.182 -227.579 485.568 -233.825C505.247 -237.478 521.924 -248.083 536.938 -262.507C551.948 -276.927 565.321 -295.189 578.39 -314.191C581.482 -318.686 584.556 -323.222 587.631 -327.759C597.564 -342.416 607.506 -357.086 618.067 -370.424C631.893 -387.887 646.747 -403.023 663.963 -412.811L663.964 -412.811C666.746 -414.395 670.048 -414.671 673.814 -413.854C677.585 -413.036 681.789 -411.127 686.327 -408.385C695.403 -402.9 705.706 -394.149 716.396 -384.402C720.903 -380.292 725.483 -376.002 730.065 -371.709C736.327 -365.843 742.593 -359.973 748.68 -354.559C759.221 -345.182 769.301 -337.102 778.044 -332.664C785.594 -328.564 792.269 -327.47 797.491 -330.926L797.497 -330.931C848.531 -365.844 908.899 -355.815 960.798 -327.399C977.764 -318.092 995.439 -305.872 1011.38 -282.466L1011.39 -282.455L1011.4 -282.445C1011.87 -281.831 1012.42 -280.979 1012.99 -280.103L1012.99 -280.101C1033.57 -248.585 1044.44 -207.888 1047.09 -170.16C1049.75 -132.412 1044.17 -97.7494 1031.96 -78.2666L1031.96 -78.2645C1019.7 -58.4805 1003.29 -47.7096 986.24 -37.9968C983.818 -36.6171 981.381 -35.2584 978.942 -33.8978C964.226 -25.6906 949.387 -17.415 936.782 -4.06329C929.1 3.8988 922.547 12.8063 916.801 22.4983C901.256 48.3289 891.738 79.076 884.828 110.289C880.346 130.532 876.956 151.004 873.732 170.467C871.988 181.002 870.292 191.241 868.498 200.988Z" stroke="#377E8D" stroke-opacity="0.5" stroke-miterlimit="10"/>
<path d="M881.2 208.604L881.2 208.605C879.447 218.367 877.776 229.511 875.974 241.527C871.653 270.35 866.579 304.19 857.822 336.002C845.413 381.088 825.661 421.867 790.385 438.419C759.24 453.025 722.373 441.886 692.22 425.122L691.977 425.559L692.22 425.122C670.931 413.298 651.204 398.878 631.51 384.319C630.613 383.656 629.717 382.993 628.821 382.33C610.03 368.432 591.205 354.508 571.052 342.733L570.8 343.164L571.052 342.733C535.951 322.245 505.546 315.571 475.137 317.602C444.751 319.63 414.394 330.349 379.397 344.574C326.694 365.906 280.203 356.915 241.695 331.049C203.163 305.167 172.608 262.376 151.879 216.113C136.193 181.113 123.043 144.201 116.078 105.981C114.483 97.0779 112.631 87.3752 110.663 77.0699C102.886 36.3327 93.311 -13.8198 90.7414 -61.2348C89.1317 -90.936 90.2738 -119.529 96.3167 -144.033C102.359 -168.536 113.292 -188.91 131.233 -202.236L131.234 -202.237C134.638 -204.783 139.177 -205.955 144.633 -206.043C150.089 -206.131 156.418 -205.135 163.357 -203.387C177.238 -199.89 193.458 -193.413 209.831 -186.733C211.037 -186.241 212.243 -185.749 213.45 -185.256C228.61 -179.061 243.757 -172.872 257.099 -168.929C264.302 -166.799 270.999 -165.318 276.904 -164.847C282.804 -164.376 287.956 -164.91 292.039 -166.852L292.039 -166.852C313.013 -176.873 332.554 -188.525 351.917 -200.072C361.461 -205.763 370.962 -211.428 380.57 -216.859C409.694 -233.324 439.861 -247.68 475.392 -254.261C496.263 -258.122 513.938 -269.401 529.842 -284.757C545.742 -300.108 559.897 -319.559 573.721 -339.799C577.012 -344.618 580.284 -349.48 583.557 -354.344C594.041 -369.925 604.532 -385.515 615.673 -399.688C630.289 -418.28 645.989 -434.386 664.195 -444.777L664.195 -444.777C667.775 -446.825 672.188 -446.796 677.31 -445.105C682.432 -443.413 688.194 -440.079 694.396 -435.628C706.669 -426.818 720.546 -413.719 734.435 -400.609L734.874 -400.195C748.892 -386.963 762.907 -373.764 775.217 -365.09C781.372 -360.753 787.133 -357.523 792.282 -355.993C797.436 -354.461 802.043 -354.616 805.8 -357.153L805.802 -357.154C859.922 -393.921 923.953 -383.284 978.888 -352.983L978.89 -352.982C996.81 -343.207 1015.61 -330.042 1032.6 -305.132L1032.6 -305.131C1055.38 -271.846 1067.4 -228.159 1070.46 -187.513C1073.51 -146.847 1067.57 -109.339 1054.54 -88.3787C1041.49 -67.3954 1024.06 -55.9405 1005.96 -45.6033C1003.41 -44.1459 1000.84 -42.7104 998.272 -41.273C982.635 -32.5253 966.879 -23.7118 953.514 -9.51595C927.678 17.8477 912.789 54.913 902.764 93.8438C895.691 121.312 891.03 149.755 886.663 176.404C884.842 187.516 883.072 198.317 881.2 208.604Z" stroke="#377E8D" stroke-opacity="0.5" stroke-miterlimit="10"/>
</svg>
